<mxfile host="app.diagrams.net" modified="2021-09-05T16:48:38.486Z" agent="5.0 (Windows NT 10.0; Win64; x64) AppleWebKit/537.36 (KHTML, like Gecko) Chrome/93.0.4577.63 Safari/537.36" etag="Bs4gPFDyYqgz_740fbFX" version="15.0.6" type="github">
  <diagram id="yB0b6cSjV1oghubMhXnz" name="Page-1">
    <mxGraphModel dx="1071" dy="607" grid="1" gridSize="10" guides="1" tooltips="1" connect="1" arrows="1" fold="1" page="1" pageScale="1" pageWidth="827" pageHeight="1169" math="0" shadow="0">
      <root>
        <mxCell id="0" />
        <mxCell id="1" parent="0" />
        <mxCell id="k9W15-Tp3gaShUGyLhXW-9" value="" style="shape=image;verticalLabelPosition=bottom;labelBackgroundColor=#ffffff;verticalAlign=top;aspect=fixed;imageAspect=0;image=data:image/png,iVBORw0KGgoAAAANSUhEUgAAAvgAAAHSCAYAAACZ/b8uAAAABHNCSVQICAgIfAhkiAAAAAlwSFlzAAALEgAACxIB0t1+/AAAADh0RVh0U29mdHdhcmUAbWF0cGxvdGxpYiB2ZXJzaW9uMy4yLjIsIGh0dHA6Ly9tYXRwbG90bGliLm9yZy+WH4yJAAAgAElEQVR4nOzdd3gb1NX48a+mbXkPydvxHvGOnb1DEhIgECBAWIGGQkuh8PZt30LpgtJfBwVKBwUawl6BMgoBEiCEQMh0vO14O7bjeMh7D1n6/eFgVsi0JMs+n+fhIZZknWNdSz66uvdchcVisSCEEEIIIYSYFJT2TkAIIYQQQggxfqTAF0IIIYQQYhKRAl8IIYQQQohJRAp8IYQQQgghJhEp8IUQQgghhJhEpMAXQgghhBBiElHbOqDR2G3rkN/i7a2jvb3P3mmIsyTj59hk/ByXjJ1jk/FzbDJ+js1a46fXu5/w8ik5g69Wq+ydgjgHMn6OTcbPccnYOTYZP8cm4+fYbD1+U7LAF0IIIYQQYrKSAl8IIYQQQohJRAp8IYQQQgghJhEp8IUQQgghhJhEpMAXQgghhBBiEpECXwghhBBCiElECnwhhBBCCCEmESnwhRBCCCGEmESkwBdCCCGEEGISkQJfCCGEEEKISURt7wSEEEIIIYRtffTRdv7zny10dHQAoNGoWbLkPK6//ntotVq75nb77bcwb95Crrnm+q9dvnHjdQwM9ANQX38Ub28fdDodADfffCtLly63Sj4NDce44oqLCQkJRalUYjZbUChg1aoL2bBhIwqFgs2bn+CVV15ArzcAMDIygre3D7fe+mNSU9PH7stWj7sU+EIIIYQQU8gLLzzDW2+9zr33/j+SklKA0SL2/vt/Q2NjA7/85b32TfA7PPXUC2P/XrduDbfddqfVivoTefzxp/Hy8gKgpcXIbbfdjI+PL2vWrAUgPT2DBx54ZOz2O3Z8wF13/S9btryJXu9u08f9tJbolJWVsXz5cl544YVvXbdnzx7WrVvHVVddxaOPPjpuiQkhhBBCiPHV3d3N009v4q67fjVWZAIEBgbx17/+k7vu+tXYZQsWZPLSS89xzTWXU1CQR19fL3/+8//j6qsv45prLufuu/8Xo7EZgM2bn+DnP/+fse8tKSlmwYJMALKzs7jiikt4/fVX2bjxWi6++Hwef/yfY7fdufMjrrzyEq6++jL+8pc/YLFYzupnW7duDc888yTXXXcFH3/80UlzAti162NuuOFqrrpqLRs2XMX+/XtPO5afn57ly89n377Pv/M25523Ep1OR0FBPl1dXaf9uI+HU87g9/X1cf/99zN37twTXv/73/+ezZs34+/vz3XXXcf5559PdHT0uCYphBBCCOFo/u9fe054+arZYZyXEQLApneKKKvr/NZtooI9+OElSQDsyq3n/f21jIx8u/D94w/moFad/pbKwsJ8VCo1M2fO/tZ1Tk7O37rs2LF6XnrpdQD+/veHaG5u4tlnX0Gj0fDQQ3/iL3/5Iw888NdTxm1pacZiMfPUUy9SVVXBhg3rWbv2ctzc3PnDH37H73//Z2bPnsuBA/vYuvVO5s9fdNo/01cVFRXw7LOvoFKp2Ly58jtvd/hwEfff/xseffRJ4uLiyc7O4u67f8obb7yLm5vbacUaHh5Gozn5sprh4WG0Wi05OTln9Lifq1P+Rmi1WjZt2oTBYPjWdXV1dXh6ehIYGIhSqWTx4sXs3Xv6736EEEIIIYTtdHd34e3t/bXLHn74z1xzzeVcc83lXHjheTQ1NY5dt3DhkrF/f/rpJ1x++ZVotVoUCgWXX34V+/fvwWQynTLuyMgIF198GQCRkdFotVqamhopLi7EycmJ2bNHJ5JnzZpDYGDQWf988+cvQqVSnfJ2n3zyMXPmzCMuLh6AGTMyCQubxp49u08rTk3NEbZvf5fly1ee8Hqz2cx//jP6Rig5OZXOzs4zetzP1Sln8NVqNWr1iW9mNBrx8fEZ+9rHx4e6urqT3p+3tw61+tQPvLXp9e72TkGcAxk/xybj57hk7BybjJ9tPfPb8095m3s2zjnlbdatiGfdivjxSInw8GBaW1vw83NDoVAA8Mc//n7s+ri4OLy8XMZ+V6ZNCxz7d1tbKxERwWNfKxTBjIyMoNGM4OrqhFarHruusXF086te746Xlw5nZ2eCg33H4qjVatzdnRgY6MLb2+trv5t6vR9ubk4n/X1VqZR4eLh87TYqlZLQ0ICxy06Wk8k0QHZ2Ftdff8XY9/f29mI2D3wr7uCgKwC33XYTSqUSi8WCl5cXP//5z1m79qKxWLm52WP3Z7FYiImJ4dlnnyEszEBdne8ZPe7nyuabbNvb+2wd8lv0eneMxm57pyHOkozfqM6eQYZMZnw9nFEqFfZO57TJ+DkuGTvHJuPn2MZr/EJColGpVLz++tssXrzshLdpa+vFyWk0VkdH31hcX18/qqqOEhgYAUBVVR0qlQqTSc3AgIn+/qGx29bVjc5GG43ddHT0YbFYvpa/xWI5frmGrq6ur13X2NhMT8/gSX/ekREzXV39X7vNNy87WU7u7t7MnDmH++77w7fu+5tx29p6AXj00c1jm2y/edve3kHS0mZ8bZPtV2+TlpZ2Ro/76fquNwTnVOAbDAZaWlrGvm5qajrhUh4hxPjJKTeyZUcFzR2jrcJUSgV6Lxf8vV248YIEPF21jJjNtHUNOlzxL4QQwrp0Oh233vpjHnroz+h0rmNrwpubm/jXv/6Or68vrq4nXoO+aNFS3nzzNWbPnotKpeK1115h4cLFqFQqDAZ/amqqGRwcRK1W8957W08rn+nTE+nu7iE7O4sZMzLZt28Pzc3js1TlZDktWrSUV155kdraI4SFhdPe3s5f//oAd9zxU/z8/MYl/le5urqe9eN+Ns6pwA8JCaGnp4ejR48SEBDAzp07efDBB8crNyGmLNOImbrmHsrqOig/2klb1wC/uXEmAC5aNd39w6RE+aJzUtPU3k9zex+NbX24aEeXvxk7Brjn3/tQq0aLf4OXC9MC3FmYEoSv5/hu5uk3DdAz1EufqY++4X56TX30DffRZ+qnd3j0si/+3W/qx8PFFVelG97OXng5eeLt7IW3kydeTl64a11RKuT8PSGEsKa1a9fh56fnmWee5MEH/4hCoUStVjFv3gKeeeYVPDw8Tvh9N930A/75z79yww3rsVgsREfH8tOf3g3A0qXL2bHjQ9avvxR//wDWrr2cDz/cdspcPDw8ufvuX/HHP96PWq0iNTWdzMxvb0Q9GyfLKTIyirvu+iW/+c09DA8PoVAoufTSy61S3H/hbB/3s6GwnKIXUWFhIX/+85+pr69HrVbj7+/PsmXLCAkJYcWKFRw8eHCsqF+5ciU33XTTSQNOhI8H5WNKxzaZx+/zggb2FDZSeayToWHz2OXe7k787qZZuDprMJstoACl4usz870Dw7g6awBoauvjv7urx4r/3oHRDVBKhYL/uzqNuLCvb/Q5U429zeQbi8htKaSm6+T7br6gQIGz2omBkcHvbIGmUqjwcvLAy8kLb2dPAl0DiPIMJ9wjFI1Kc045i3M3mZ97U4GMn2OT8XNs1hq/71qic8oCf7xNhF9OeZI4tsk8fkVH2nj4lVyC/FyJCfUiJsST2BCvc5517+kfJqfcyIHDzdy5LgW1SklP/zD5lS3MjPdHoz75rLnZYqamq448YxH5LUU09RkBUCqURHmG4+vig07tgqtGh06tQ6dxwfWL/2t06NQuOKudUSqU+PjqqKw/RvtgB+0DnbQPdtAx2En7QOfx/3fQNdSNhS9fmtQKFWEeoUR7RRDlGU6kZzg6jcs5PSbizE3m595UIOPn2GT8HJsU+DYgTxLHNpnGz2y28MHBOmZP98fb3QmA/kETLk7W3//+/r4aXvukEg9XLUvTg1mSHoyn65f9fIfNJsraK8k3FpLfUkzX0OhjrlVqmO4bR4pfIkl+CbhqdGcU93TGb8Q8QsdgF7XdR6nsqKais5qj3cfGin4FCoLcAojyjCDaK5worwi8nDzP8BEQZ2oyPfemIhk/xybj59hsXeDbvIuOEGJUU3sfm7cepqK+k7rmbm5ekwhgk+IeYGa8ga6+IT7Na+C/u6t5d+8RZiX4k5Soorg3i6LWEgZGBgFw07gyN3AmqfpE4rxj0Fp5uYxKqcLXxRtfF2/SDcnA6Fr/6s4aKjuqqew8wpGuWup7Gvi0fvQgGX+dnjR9MmmGJELdgsfakAkhhBBTjczgC4fj6ONnsVjYmVPPqzsrGBo2MzPewPXnx+HmYp815gNDJvYUNvJBdhXtrnmoDXWgAF9nH1L1iaTqk4j0nDZum1/Ha/yGzSbquo9S0VFNZUc1pe2VDJuHgdHc0w3JpOmTCfcIlWJ/nDj6c2+qk/FzbDJ+jk1m8IWYxNq7B3nqvcMUVbfh6qzme6sTmD3d3645OWlU6AIbscTtRD3ci4/Wj+umX0asdxR5Fa2E6LwmZGcbjVJN5PH1+ExbyuDIEMWtpeQ051PYepiPanfxUe0uvJ28SNMnkWZIHtc3KkIIIcREJQW+EDZkGjFTUd9JcqQvN66OH1t3by/Hehp5pfRNKjur0So1rI26gKWhC1Ar1dQ19/DPNwrwctdy3Yo40mKs1zpsPDiptKQbkkk3JDM8MkxJezk5zQXktxSz8+hudh7djYfWnTR9EumGFKK9IqTYF0IIMSnJEh3hcBxt/Lr6hujqGSLEMHqARUNrLwE+OrsuGxkwDfLekQ/ZWbcbs8VMqj6JdTFr8HH+sn3msGmEd/bU8P6+GkbMFjJi9VyzIvac35TYevxMZhOl7ZXkNheQ31JEz/DoiYQ+zt7MCchgTmAmvi4+NsvHkTnac098nYyfY5Pxc2zSRccG5Eni2Bxp/OpbevnLyzk4a1Tct3EWTscPorIXi8VCrrGQ/5S/TcdgJ77OPlwZewlJfgnf+T31Lb08u62EiqOdOGtVrFsSxbIZIWedgz3Hb8Q8QkVHNQebcshuzmNwZAiAWK8o5gbNJE2fhFalPcW9TF2O9NwT3ybj59hk/BybrMEXYpLo6h3ib6/l0dU7xPlLotBo7LscpLmvhVfL3uJwWxlqhYrV4ctZOW3pKTviBPu5cve1M/gs7xiv7azkaHOPjTIefyqlijifaOJ8olkXczE5xgL2NRykrKOSso5KtqicyfBPYU7gTCI8wmRzrhBCCIckBb4QVjA0PMI/Xs+npXOAtQsiWD1nml3z2Vm3m7cq38NkNpHgE8uVsZdg0OlP+/uVCgWL04JJi9GjUY0WvRaLhV25x5ibGGD3TybOhrPaibmBmcwNzMTY18q+xiz2NWTx+bEDfH7sAP46A3MCM5gdkIGn0/gdHy6EEBPN5s1P8MorL6DXGwAYGRnB29uHW2/9Mamp6QCsW7cGk8mETqfDYrFgsVhISUnj9tv/Bw+P0XNIent7ePrpJ9m7dzcWi4WRkRECAgK56qprmTdvgd1+vqlICnwhxpnZYuGp9w5TeayLOYn+rJkfbrdcLBYLW6s/YNuRHXho3bki9hLS9clnPTP91YOwDpY089z2Ut7bV8NNFyYQF+Z9ku+c2PQ6X9ZEns+FESsobatgb8NB8lqK+G/l+7xTtZ1E33jmB81iuk8cKqXjvZkRQohTSU/P4IEHHhn7eseOD7jrrv9ly5Y38fT0AuDOO3/K0qXLARgcHOS++37FI488yG9+cz+Dg4P8+Mc/IDQ0jMcffxp3d3fMZjOff/4p9977S/70p4eYMSPTLj/bVCQtJIQYZy0d/RRWtREd4sn3VsfbbZmH2WLmtfK32XZkB34uvvws4zZmGFLGLZ/UaD9WzwmjrWuQB17O4Z3PqzGbbbqlZ9wpFUoSfGPZmHQtf5z/K66KXUuwWyAFLcU8nv8Mv9n7J96p2k5rf5u9UxVCiLPW0HCMRYtm8fLLL3D11ZfR1NT4rducd95KdDodBQX5J7wPJycnLrvsCvbtGz1s8P33t9Ld3cOvf30/7u6j68KVSiULFy7hrbfek+LexmQGX4hxZvDW8csNGbi6aNCo7TPbO2Ie4cWS/7C/8RBBrgHcnvb9cV9m4qRRccWSaNKi/Xj8v0W8+Vk1JbUd3HJx4tdm+h2VTqNjUcg8FoXMo667ns+PHeBgYw7bjuxg+5GPifeJYV7QLFL8pqNWykupEOLr3qjYSk5zwbjdn0qpYOQ7JlHSDclcFn3RGd2f2WzGZDLx8stvsHnzE3R0tH/rNsPDw2i13/16Pjw8jEYzuo8rOzuL+fMXoFZ/+/VQp3M9o9zEuZO/SkKMk+qGLnw9nfHQaQn0td+L2bDZxNNFL5FnLGSaRyi3pd6Eq0ZntXgxIV7ct3EWm7cWk1fZSnaZkaXpwVaLZw+h7sGsj7uUS6MvJLs5nz3HDnC4rYzDbWW4aVyZHZjB/KDZ+J/BvgYhhLC3xYuXnPBys9nMG2+8ikajITk59YS36erq4uWXn2f58pXHv+4kMjJq7Pq+vl6+//0NwOgbgaioaP70p4fH9wcQ30kKfCHGQVN7H399NQ83Fw2/u2kWapV9Vr8Njgzx7/xnKWkvJ9Yrih+k3ICz2tnqcd1cNNyxLoXsshZmxI4eiGUaMaNUKFAqJ08nGieVdmxjbkNvE3uOHWB/4yF21H7KjtpPifaKYG7gTNINKThJu00hprTLoi8641n1k7FGm0UPD6+xf+fkHOKaay4HRvdvRURE8cgjj+Li4jJ2m7/97SE2bXoMAI1Gy/z5C7nxxu8D4O3tQ0uLcey2Op0rL730OgDvvfcO7733zrjmLk5OCnwhzlHvwDB/ey2fnv5hLl8cabfivm+4n8fyn6Kqs4ZkvwRuSrwOzSlaYI4nhUJBRtyXM9hbPq6g3tjDzWsS7X5irzUEuvpzecwaLo5aTZ6xkM+PHaCsvYKKjmpeLXuLdEMKcwNnEuUZLu02hRAT3jc32Z7IVzfZftOsWXN4/PF/cPvtP8HZ2foTS+LkZJOtEOfANGLm0TcKaGzrY9XsMBan2WdpSvdQD3/LeYKqzhoy/dO4OWmDTYv7bxoxm2nvHqSktoN7nz5AYVWr3XKxNo1STaZ/Gnem38J9c+9idfhyXDWu7GvI4q/Zj3Hvvgd4v3oHbQPfXt8qhBCTxYoVqwgODuVXv/o5bW2jr/kWi4WDB/fz9NNPEhZm33bRU43M4AtxliwWC89vL6WktoP0GD/WLYk69TdZQftAB3/P/TfNfS0sCJ7DVbFrUSrs+95dpVRy26VJ7Dh0lFd3VvDwq3lcOHcaaxdG2DUva/Nz8eWiyJVcELGc8vYq9jVmkdNcwNbq7bxb/QFx3tHMDsyQE3OFEJOOWq3m4Yf/yXPPPcWPf/wDLBYLw8PD+PsHsHHjzZx//gX2TnFKUVgsFpv2tZsIxyzLcc+ObaKMX2NbH/c+dYBAP1fuvmaGXQ57auoz8o+cTbQPdrAibAmXRK2ecMtBjjR28dhbhRg7BogN8eTPdyyiva3X3mnZTL9pgJzmfPY1ZFHZeQQA5+Mn5s4KyCDSc5rd35Cdrony3BNnR8bPscn4OTZrjZ9e737Cy6XAFw5nIo1fdUMXXm5OdlljXt/TwD9yNtE93MMlkatZGb7U5jmcrr4BE89uK8Hg7cIP16VNmPGzteY+I/sbDrGv8RAdg50AeDt5kemfxsyAdIJcAybcG7SvmkjPPXHmZPwcm4yfY5MC3wbkSeLY7D1+7d2DuLlo0KjtN+vaMdjJnw78jZ7hXq6MXcuikLl2y+V0jR5tDv7+HjQ1d7G/qInZif4oJ3BBay1mi5my9koONuWQ21zIwMgAMLpxN9M/nUz/NPxcfOyc5bfZ+7knzo2Mn2OT8XNsti7wZQ2+EGfAbLHwr7cK6Ok38esNmeicbf8UGjGPsLnwBbqHe1gXc7FDFPcw2mXni1r+o6yjvLKjnL1Fjdy8Zjruuqm1Hl2pUBLvE0O8TwxXxV5KUWsJWU05FLYc5p2qbbxTtY1Iz2lk+qczw5CCu9bN3ikLIYRwIFLgC3EG9hY2Ulnfxcx4g12Ke4A3K9+lqrOGDEMqS0Lm2yWHczUvKYCi6jYKqlq575mD/GhtMpFB43vSrqPQqjSkG5JJNyTTN9xPnrGQrKZcStsrqOqs4T/lbxPvHUOGfyopfonoNC6nvlMhhBBTmhT4QpymvgETr+2sQKtRctWyaLvkcKgpj511uwnQGbgmft2EXq99Mm4uGu68IoV39xzhrc+q+eMLh1h/XgzLZgQ77M80HnQaF+YGzWRu0Ew6B7vIbs7nYFMOxW2lFLeVolKoSPCJZYYhhRT9dFzUUuwLIYT4NinwhThN/91dTVffMJctisTHw/aHeDT2NvNiyWs4qbTcnLwBZ7VjHx6lVChYMz+CyGBP/v12ES9+WEaQnysJ07ztndqE4OnkwdLQBSwNXUBzXwvZzflkN+dR2HqYwtbDqEtUJPjGMsOQSrLfdFxscGKxEEIIxyAFvhCnod7Yw45DRzF4u3D+rDCbxx8wDbKp8HkGR4bYmHgtAa4Gm+dgLYnhPvz2xpkcONwsxf13MOj8WBW+jFXhy2jqM5LTnE92cz4FLYcpaDmMWqkem9mXYl8IIYQU+EKchv6hEfRezly9PMbm3XMsFgsvl75OY28TS0MWkOGfatP4tuDj4cyq2aNvnCwWCy98UEZMiCdzEgPsnNnE46/Tsyr8PFaFn0djb/NXiv1iClqKUSvVTPeJI02fRLJfAjqNzt4pCyGEsDEp8IU4DdHBntz//dmoVbZvjbmrfg9ZTblEek5jbfTkPwmwtXOAvUWN7Mypp/xoJ+vPi0ajtv0hYo4gwNXA6ojlrI5YTmNv0/FlPPnktxSR31KEUqEkzjuaNH0Sqfok6cYjhBBThPTBFw7HluM3ODRC36DJLgdZAVR11vBI9uO4qJ35xaz/wcvJ0y55jKfTGb/Gtj7+9WYBR429hBncuHVtEv4+MhN9uhp7m8k1FpJrLKCuux4ABQqivMJJ0yeTpk/C29nrjO9XXjsdm4yfY5Pxc2y27oOvuvfee+8d92gn0dc3ZMtwJ+Tq6jQh8hBnx5bj9/bn1Wx6p5iYEE/8PG3bsaR7qId/5G5iwDTAD1NuJMQ9yKbxreV0xs/NRcP85EC6+obJr2pld0EDBi8XgvUyA3063LSuRHtFsCB4DnMCMvBx9mJgZIiqzhqK20r5uO4zilpK6DX14a51w1Xjelr3K6+djk3Gz7HJ+Dk2a42fq+uJJyBliY4Q36GpvY9t+2vxcNUSHmDbHu1mi5mni16iY7CTiyNXEedjn7ac9qTVqLhxdTzxYV48u72U1s4Be6fkkHxdfFgWtohlYYvoHOwiz1hEnrGQso5Karrr+G/l+wS4+pPql0iKfjph7iEoFfY7pVkIIcS5kwJfiO/w8kflmEYsXLUsBietbdeAv1v9IaXtFST7JbBi2hKbxp5o5iQGEB3iOdaa1DRipq1rAIO3LNk5U55OHiwKmcuikLn0DveR31JMnrGAkrZyttd8zPaaj/HUepCiTyTVL5EY70jUSvkzIYQQjkZeuYU4gdyKFvIrW0mY5k1mnN6msQtbDrPtyA78nH3YkHCVzKbC15ZHvbGrip059WxYFcdc6bJz1lw1OuYGZjI3MJPBkSFK2srIMxZR2HKYz+r38ln9XpxVziT6xpGqT2S6bzxw4rWeQgghJhYp8IX4hmHTCK98VI5KqeCaFbE2PVm1pb+NZ4pfQaNU8/3kDdLi8ATCA91R5MKmd4oprW3nmuWxaDXSZedcOKm0pB7vtDNiHqGq8wh5LUXkG4s41JzHoeY8VAoVSf5xxHvEkeyXcFabdIUQQtiGFPhCfEP/0AhBfq6kxfgR7Hd6mw/Hw4h5hCcLn6ff1M918VcQOkk21Y63WQn+TAtw57G3Cvk0r4HKY138aG0Sgb62G6vJTKVUEeMdRYx3FJdHr+FYbyN5xkLyjUXkNRaT11jMlrI3CXMPJsUvkRR9IkGuATZ9IyyEEOLkpE2mcDi2Gr8RsxmV0nbLY3bUfsobFVuZHZDBhulX2SyurY3X+A2bRtjycQUfZ9fjpFHxh1vm2K2d6VSh0A2zs+wABcZiyjoqMVvMAPg6ex8v9qcT5RmBSimfqExE8rfPscn4OTZbt8mUGXwhvqK+pXds1t6WxX3HYCfvVn+Aq0bHZTEX2SyuI9OoVVy3Mo74MG/qmnukuLcBP1cfloTMZ0nIfPqG+yluLSG/pZii1lJ2Ht3NzqO70aldSPSNJ0WfyHSfOJzVMi5CCGFrUuALcVzxkTYefCWXSxdFsmZeuE1jv1G+lcGRIS6PWYPbafYkF6My4w1kxhsAsFgsbNpazIwY/dhlwjp0GhcyA9LJDEjHZDZR3lFFvrGY/JYiDjblcLApB7VSTYJPLOn6ZJL9EmRPiRBC2IgU+EIw2nrxxQ/LUAApkb42jV3aVsGh5jymeYQyN3CmTWNPNsdaejlUamRfUROzEgxctzIONxeNvdOa9L4o5BN8Yrky9hLqeurJNxaRayykoKWYgpZilAolcd7RpOuTSdEn4q6VQ8uEEMJapMAXAtiZU09Dax9L0oOZFmC7VoAms4lXy95CgYL1sZdKS8xzFKx3476Ns9i8tZgDh5spre3ghlXxpMX42Tu1KUOhUBDmHkKYewgXRZ5PU28zOcZCco0FHG4r43BbGS+XvkG0VwRphmTS9El4OXnaO20hhJhUpMAXU55pxMy2/bU4aVRctijSprF31u2msa+ZhcFzCfMIsWnsySrAR8cvrstg+4Fa3vysir+/ns95M0K4dmWsvVObkvxdDaxyXcaq8GW09LeRaywgt7mQ8o4qyjuqeK3sv0R4TCPDP5VM/zSZ2RdCiHEgBb6Y8g4ebqa9e5DlmSE2Xc7RPtDBe0c+wk3jyprI820WdypQKhWsnjONlChfnnz3MCEG2dcwEfi5+LA8bDHLwxbTMdhJrrGQ3OYCKjqqqe6q4Y2KrcT7xDDbfwYp+kS0Kq29UxZCCIckBb6Y8rr7h3FxUrMyM9Smcd+o2MrQyBBXxlyCq2w+tIpgvRu/vD4DlXK0R/vAkIl399ZwwZxpuDjJy589eTl5jt6PdWgAACAASURBVHXk6Rrq5lBTHgcasyluLaW4tRRnlRNp+mRmBqQT6x0ly9eEEOIMyF84MeWtnBnKkrQgm56GWtJWTnZzPhEe05gdmGGzuFORWvVlYfjhwTre3VvDvqIm1p8Xw4xYPzmgaQLw0LqzNHQBS0MX0NjbzMHGbA405bCvMYt9jVl4OXky0z+dmQHpBLsF2jtdIYSY8KTAF1OaxWJBoVDYtLgfNpvYUvYmChRcFbdWZiZtaNXsaQyZRvdcPPpmAdPDvbl6eaxNTywWJxfgamBN1CoujFxJZccRDjZlk92cz4e1n/Bh7ScEuwUyJyCDOYGZ0nZTCCG+g+ree++915YB+/qGbBnuhFxdnSZEHuLsjNf41TX38NCWPPTezhi8bVco7KjZRXZzPotD5jEvaJbN4k4U9nz+qZQKpof7MDPeQHNHP0XV7ezKOYbOWU1kkHRyORVbjp1CocDXxZtkv+ksDVlAsHsQJrOJqs4aittK+eToboz9rXg5eUgXntMkf/scm4yfY7PW+Lm6nvgwQZnBF1PW9gO1HDX2MDJisVnMtoF23j++sfaiCNlYay+Bvq785IpU8ipb2bKjnIggj7HrvvhUR0wcGpWGGYYUZhhS6BnqZV9jFp8d3cu+hiz2NWQR5h7CouC5ZPinysZcIYRACnwxRbV1DbC/uIlAXx3JUbY72Or18q0MmYe5Ku5SdBoXm8UV36ZQKEiL9iMl0hfl8U24Da29bH73MFcujSY21MvOGYoTcdO6sjxsMctCF1LSVs6n9XspbDnMCyWv8XrFVuYGZrIgeA7+Or29UxVCCLuRAl9MSTsOHWXEbOH8WWEobTRbW9xaSq6xgCjPcGYHyMbaieKL4h6goKqNqmNd/OnFbGZP9+eKJVH4eDjbMTvxXZQKJdN945juG0fbQDuf1+/n82MH+LjuMz6u+4x47xgWhswl2TcBldJ2e2yEEGIikAJfTDn9gyY+ya3Hw1XL3MQAm8QcNpt4rey/KBVKroq7VJaATFArZ4YSFeTBix+Wsb+4iZxyIxfODWdlZihOWikSJyofZ2/WRK1idcRy8oyFfFq/l5L2ckray/Fy8mRZ6ELmB83CWS1v1oQQU4MU+GLK+byggf7BEVbPnoZGbZsONjtqd9Hc3zK6WVDa/E1oUcGe/OqGTD4vaOD1Typ589Mq+gdNXLk02t6piVNQK9Vk+KeR4Z/GsZ5GPqsfXaf/RsVW3j+yg0XBc1kSOh8Prbu9UxVCCKuSAl9MOYvTgtFqVMyItc0a3db+NrYd+Rh3rRsXRq6wSUxxbpQKBQtTgsiINfDBwVoWpQYBoxtwP86uZ/Z0f5ueeizOXJBbAFfFXcqFkSv57OhePjn6OdtrPmZH3afMCcjgvLDFGHR+9k5TCCGsQgp8MeVo1Mqxgs0WXi9/h2HzMNdEX46LWjbWOhKds5q1CyPHvi6oauXFD8v4z65Kls0I5vyZYXi4SteWicxN48rqiOWcF7aIfQ2H2FG7i93HRtfrp+mTWDFtCdM8bHuKtRBCWJsU+GLKsFgs7C5oIDPOgIuTbX71y9oryGspIsozgpn+6TaJKawnLtSb9cuief9ALe/vq2VH1lEWpwWzanYY3u4n7kUsJgatSsuikLnMD5pFrrGQD2s/IcdYQI6xgFivKJZPW8J0n1jZHyOEmBSkwBdTxuGadp5+r4SSmg5uXjPdJjHfq/4IgMtjLpLCYRJw0qpYOSuMpTOC+Sy/gff21fBhVh3ZZUb+fOtcm3VkEmdPpVSR4Z/KDEMKpe0VfFjzCSXt5ZR1VBLsFsgFEStI9UuU56sQwqFJgS+mjG0HagFYnhlik3jl7VWUd1Qx3TdOlgBMMhq1imUzQliUGsSewkZUSsVYcX/gcBPOWjVJET5fa8EpJhaFQkG8TwzxPjHUddfzYc0nZDfns6ngOULdg7koYiWJvvFS6AshHJIU+GJKOGrsobCqjdhQLyICPU79DePg/SOjs/cXhC+3STxhe2rV1/dzmM0WXt1ZQVvXIN7uTixIDmRBSiB6L9l7MZGFugezMelaLuhdwXvVH5LdnM9j+U8T4RHGRZHnE+cdLYW+EMKhSIEvpoTt+0dn71fNCrNJvMqOI5S2V5DgE0uE5zSbxBT2p1DAbZcm82neMfYXN/HOniO8s+cICdO8uWRBhJyOO8EFuBrYmHQt5/cs493qD8kzFvKP3E1Ee0VwUcT5xHhHnvpOhBBiApACX0x67d2D7CtuItBXR0q0r01ifjF7v1pm76cUhUJBRKAHEYEerF8WQ1ZpM5/mHeNwTTurZ3/55tLY0S+z+hNYsFsgtyRvoLb7KO9WfUBhawmP5DxOvHcMF0WeT4SnbSYKhBDibEmBLya9voFhooI9mZcUYJNNkNWdtRxuKyPWO5oor3CrxxMTk5NWxfzkQOYnB9LY1ofheEHf0tnP3Y/vZVqAO3Om+5MW44fBW2fnbMWJhLmHcGvqRqo6a3i36oPR03EPlZPkm8BFkSsJdQ+2d4pCCHFCUuCLSS9Y78bd187AYrHYJN6Xa+/Ps0k8MfEF+HxZwA8Nm0mN9iOvsoUjjd288nEFQX6upEX7sXJWKB466as/0UR6TuPH6TdT3l7JO1UfUNh6mMLWw8z0T+eSqNV4O8vSKyHExCIFvpjUTCNm1ColgE02ydV01VHUWkKMVyQx3lFWjyccT5CfK3esS6Gzd4i8ihZyy1soOtLG9gO1rJ4zuvSjf9BEaW0HCeHeOGlUds5YfCHGO4qfzPghJe3l/LfyfQ425ZBnLGTFtCUsD1uMViVvzoQQE4MU+GLSGjGb+fWT+5ke7sP158fZJOb7R3YAsvZenJqnq5ZFqUEsSg1icHiEmsZuXJ01wOiJuY//twitWsn0cB/SYvxIjvSVw7QmAIVCQYJPLHHe0exrOMTbVe/zbvWH7Dl2kLXRF5BhSJWOO0IIu5MCX0xaB0uaaWrvJzHCNvHquuspaCkm0jOcWJm9F2fASaP6WoedUIMbF8yZRm5Fy9h/AP7eLtz7vVk4aVVYLBYpJO1IqVAyL2gm6YZkth/5mJ11n/F00UvsOrqHK2IuJszDNudtCCHEiUiBLyatHVlHUQArZ9rmkKkvZu8vCF8uhZc4J4G+rqxbEsW6JVE0tfeRV95CcU073X3DOGlHl+wUVbfx3PZS4kK9iA31Ii7MC72Xi/zu2ZiL2pm10RcwP2g2b1a+S56xkAey/sHswAwujlyNp5O7vVMUQkxBUuCLSelYSy+Vx7pIivSxSYeS+p4G8oyFhHuEEe8TY/V4Yurw99axclYYK2eFfW2jeFffEP2DJj4vbOTzwkYAvN2diAv1YsOqOJy18vJuS3qdL7ckb6C0rYL/lL/NvoYscprzWRV+HktDF6JRyngIIWxHXnHEpPR5QQMAC5IDbRLv/erjnXMiZPZeWM9Xf7fmJQUyJzGAY8ZeSus6KK1tp7Sug8M17WMbcyvrO3nl43IiAj2IDPQgIsgDg8zyW1WcTzR3z7yTPQ0HeKdqO/+tfJ/P6/dzRewlJPkl2Ds9IcQUIQW+mHTMFgt7ixrROalJj/GzerxjPY3kGAsIcw9huo9tNvMKAaBUKAgxuBFicOO8jBAsFgudvUNjBXxjWx/Vx7qprO8a+x5XZzXhgR7cvGa6tOS0EpVSxcLguWQY0nj/yEd8cvRzHst/mkz/NNbFXIy71s3eKQohJjkp8MWko1QouOvaGTS09KFRW7/F4LYv1t7L7L2wM4VCgZfbl5125icHMjPeQG1TD9UNXVQ3dFHV0EXF0U7cjnfsOdrcw19fyzt+Aq874YEeRAS4ozt+vTh7Oo0Ll8esYW7gTF4oeY2splwOt5VxRcwlZPqnyeuFEMJqpMAXk5K/tw5/G6y9b+xtJrs5nxC3IJJ85eN3MfFoNSqiQzyJDvEcu2xgyIRSOVpcdvQOMmK2kF1mJLvMOHYbg7cLP7kiFX8fHRaLhaFhs81znyyC3AL4WcZtfFK3m3eqtvNM8ctkNeWwPu4yOSRLCGEVUuCLSaV3YJi6ph5iw7xQ2mB2bNuRHViwsFpm74UD+eoG3KQIX/56+3zauwepbujiSGM31Q1d1Db14HW8735r1wB3Pb6XMH93wgPciQ72JCbEU7r2nAGlQsmysEWk6BN5qeR1CltL+P3+h7gk6gIWBM9GqVDaO0UhxCQiBb6YVPYVNfHih2VctzKWZTOs24e6qc9IVlMuwW6BpPhNt2osIaxJoVDg4+GMj4czGXEGgK/12e8fHCE62JPa5h5qGrvZlXsMAA9XLXeuSyEi0AMYPVxOpZRC9WT8XHz5cdrN7GvI4vWKrWwpe5Osplyujb8cf1eDvdMTQkwSp1Xg/+EPfyAvLw+FQsE999xDSkrK2HUvvvgib7/9NkqlkqSkJH75y19aLVkhTmV3fgNKhYKMWL3VY20/8jEWLKwKP09m38Sk89WZ+VCDG7+4LgNvH1eyixqoONpJeX0nlfWd+Hk6A6Ofnv3s0T2jM/whozP8MSFeuDjJPNI3KRQK5gbNZLpvHK+W/ZdcYwF/OPgIF4QvZ3nYYlRK6+8dEkJMbqd85T1w4AA1NTVs2bKFyspK7rnnHrZs2QJAT08Pmzdv5oMPPkCtVrNx40Zyc3NJS0uzeuJCfFNdcw81Td2kRvni+ZWNhtZg7GvlYFMOAa7+pOmTrBpLiIlCrVIe34zrwYpvHCDX0T2I3suFsroOSus6AFApFUQHe3L18hjC/OXAp2/ydPLg5uTryW0uYEvZW7xdtY3s5nyuS7iCUPdge6cnhHBgpyzw9+7dy/LlywGIioqis7OTnp4e3Nzc0Gg0aDQa+vr60Ol09Pf34+npeYp7FMI6xnrfp1i/9/32mo8xW8ysltl7IQAI1rvxu5tm0TdgoupYJ2VHOyiqbqOsrgOd8+ifmmGTmec/KGX6NG+mR/hIm87j0gzJxHpH8UbFu+xtOMhfsv7JmsjzOS9skby+CCHOyikL/JaWFhITE8e+9vHxwWg04ubmhpOTE7fddhvLly/HycmJCy+8kIiICKsmLMSJmEbM7C1qxM1FQ2q0dXvft/a3sb/xEP46AzMMKaf+BiGmEJ2zmqRIX5IifblsURQ9/cO4uYy23Kys72R3fgO78xtQAOGB7iRG+JIc6UNkkMeUXr+v0+i4LuEKMgypPH94C29VvkdxWxkbEq6UTjtCiDN2xosjv3pUek9PD0888QTbtm3Dzc2NG264gZKSEuLj47/z+729daht0Jv8VPR6+bjYkX1z/Gobu1CrlCxMCyYwwLqfIr2bsw2zxcwVyRfgb5BPrM6GPP8c15mO3Vd3w/j6uvFIgAfZpc1klzZzuLqN6oZutu45woN3LCRu2ujzyWy2jLXxnGr0+gzSIuJ4/MDzZB3L549Zj/CDzGuZEzpjnO5fnnuOTMbPsdly/E5Z4BsMBlpaWsa+bm5uRq8ffcmurKwkNDQUHx8fADIzMyksLDxpgd/e3neuOZ8zvd4do7Hb3mmIs3Si8XNRKXjg1rkMDpmtOrYDpkF2Vu3BQ+tOjEus/B6dBXn+Oa7xGDsPJxVLUgJZkhJI/6CJkpp2Ko514u2ixmjs5qixh0dey2NWgj+zE/wJ83ebkq04b4y7lmj3aF4vf4eH92xiXuBMLo+5GGf12e8vkueeY5Pxc2zWGr/vetNwys9D58+fz/bt2wEoKirCYDDg5jZ6zHZwcDCVlZUMDAwAUFhYSHh4+DilLMSZUSmVY2t9reVgUw79pgEWBM1GrZTuIEKcCxcnNemxeq5YEj1WxDe29tE/aGLb/lrue+Yg92zaz1ufVdHQ2mvnbG1LoVCwMHgOd8+8k1C3IPY0HORPBx+hpqvO3qkJIRzAKSuUGTNmkJiYyPr161EoFPz2t7/ljTfewN3dnRUrVnDTTTexYcMGVCoV6enpZGZm2iJvIcbsLWqkrWuAJenBuDprrBbHYrHw6dE9KBVK5gfPtlocIaayzHgDqdG+5Fe2ceBwE3kVLbz9+RG2H6jjb3csQKux/xJPWwpwNfDTzNvZWrWdj2p38eChR7koYiUrpi2RDbhCiO90WlOQP/vZz7729VeX4Kxfv57169ePb1ZCnCaLxcL7+2poaO1jUWqQVWNVdFRxrLeRDEMqXk6y9l4Ia9GoVWTE6cmI09M/aCKvooXO3qGx4n5vYSOHyowszwghLsxr0i/h0SjVXBp9IQk+sTxXvIW3q7ZR3FbKDdPX4+Psbe/0hBATkKwxEA6ttqmHo8ZeMmL1uFu55d6uo3sAWBQyz6pxhBBfcnFSMycx4GuXFR9pI7vMSHaZkWC9K+dlhDB3egBO2sk9ux/vE8M9s3/CSyWvk2cs5A8H/srVcZeT4Z9q79SEEBOMfL4nHNru/NHe9/OTrdv7vn2gg7yWIoLdAonyDLdqLCHEyW28MIF7rstgVoKBxtY+nttWyk8f/ZyPsib/+nQ3jSs3J13PtfHrGDGP8FTRi2wpfYths8neqQkhJhCZwRcOa9hkZl9xIx6uWpKjfKwaa/ex/ZgtZhaHzJv0ywGEmOgUCgXRIZ5Eh3jS3j3Irtx6PsmpR6P+cs6qqa0Pg7fLpHy+KhQK5gXNIsoznE2Fz/Np/R5quuu4KfE6fF1kyY4QQmbwhQPLq2ihd8DEvMQAqx6QM2w28Xn9flzULsz0T7daHCHEmfN2d2Ltwkj+8qP5zEsa/SSvf9DEfc8c5FdP7mdnTj3DJrOds7QOf1cD/5f5Y2YFzKCmq44/H/wbRa2l9k5LCDEBSIEvHJanm5bUKF/mJwec+sbnILe5gO7hHuYFzkSrsu46fyHE2dGolWMz+IPDI6TH+NHc3s/z20v5xb/38klOPaaRyVfoO6m0bEi4iqvjLmNwZJDH8p5ia9V2zJbJ97MKIU6fFPjCYcWEeHHnFakE692sGmfX0T0oULAweK5V4wghxoeXmxM3r0nkwR/NY9WsMHr6hnlueym/eGIfXX1D9k5v3CkUChYEz+GnGbfh4+zF+0d28GjuZrqHeuydmhDCTqTAFw5pxGyb2anarqNUd9Uw3TcOvc7XJjGFEOPD082JK5dF8+cfzmV5ZgjBelc8jnfb6hsYttnriK2EeYRw98w7SfJNoKS9nD8d/BtVnUfsnZYQwg6kwBcOx2Kx8LtnsnjsrUIsFotVY+2qH22NuVhaYwrhsDzdnLhmeSx3rksZu+ylj8r59ZMH2FfciNls3dcRW9JpdPwg5QYuiVpN52AXf81+nI/rPrP6a6UQYmKRAl84nLLaduqaRz96tmaHjJ7hXrKacvFz8SXBJ9ZqcYQQtvHF64XFYsFJq8LY0c+/3y7mN08d4GBJM+ZJUgQrFUpWTlvKHem34KrR8Xr5O2wufIG+4X57pyaEsBEp8IXD2XFwtNf1ghTr9r7fe+wgJrOJxcFz5Uh4ISYRhULB9Svj+MMtc1iQEkhjax+PvVXIvU8d5Ehjl73TGzex3lH8Yub/EO0VQY6xgF98+Ccae5vtnZYQwgakahEOZWh4hE9zjuLlpiUx3Hq9780WM5/W70Wr1DAnMNNqcYQQ9qP3cmHjBQn8v5tnMzfRn6b2PlycJtfxMJ5OHtyRdgvLwxbT0N3MX7L+SVFrib3TEkJYmRT4wqHklB/vfZ8UiFJpveU5hS2HaRtoZ2bADHQandXiCCHsz99Hx81rEnng1nn4e48+38uPdvD27mqGhkfsnN25UylVXBp9IXfM+R4mi4nH8p5mR+2nsi5fiElsck1ViElvd0EDgNV73+86KptrhZhqPF2/POdi654aCqpa2V3QwPrzYkiP8XP4U3EXTJuFs8mNJ/Kf4Y2KrRzraWR9/GVolFIKCDHZyAy+cCgbzo/jJ1enE+jrarUYjb3NlLSXE+0VQbCbddf5CyEmph9eksiqWWG0dw/yzzcKePjVPBpae+2d1jmb5hHKz2fewTT3UPY1ZvH3nCfoGuq2d1pCiHEmBb5wKHovF5Zlhlk1xqf1ewFYHDLfqnGEEBOXi5OaK5dF87ubZpEU4UNRdRu/2XyA/MpWe6d2zrycPPmfGT8k0z+Nqs4aHjj4D+q66+2dlhBiHEmBLxxGbVO31Q+mGTANsL8hC0+tB6l+iVaNJYSY+AJ9XfnJlan8+LJkooI8iA31BMBstjh0W02tSsON06/mksjVdAx28vChf5HdnG/vtIQQ40QKfOEQ+gaGuf/ZLB7ekmfVOAcasxkYGWRh8BxUSpVVYwkhHINCoSA9Vs/d12XgrB1dr74rt56HXsmlpcNxe8srFApWhi/lluQNKBQKNhe+wLtVH2C2TK4TfoWYiqTAFw4ht6KFEbOF+GneVothsVjYdXQPKoWKeUGzrRZHCOH4qo51cbimnV8/dYBPcuoduiNNij6Rn2Xcjq+zN+8d+YjNhS8yODJk77SEEOdACnzhEA6VGgHIjNNbLUZZeyWNfc2kG5LxdHK3WhwhhOPbeGECN12YgEqh4LntpTy0JZeWTsedzQ9yC+DnmXcQ4xVJrrGAhw/9i/aBDnunJYQ4S1LgiwlvYMhEYXUbQX6uVu2es6v+i9aYsrlWCHFyCoWC+cmB3P/92aRE+VJ8pJ3fbD7g0J123LSu3J72fRYEzeZozzEeOvQvGnqb7J2WEOIsSIEvJrz8ylaGTWYyYq03e9820E6+sYhQ92AiPKzbpUcIMXl4uztx57oUNl6QQEqULwE+jn0wnlqpZn3cZayNuoD2wQ4ePvQvKjqq7Z2WEOIMSYEvJrziI+0AZFhxec7u+v1YsLA4eJ7DH2YjhLAthULBgpRAfnhJ0tjrx2ufVPBp3jGHXJuvUChYMW0JGxKuYmBkkH/mbiLXWGjvtIQQZ0COrxMT3oZVcSxKDSLU4GaV+zdbzOxvPISzypkM/1SrxBBCTB1dfUN8knOM/kETWaXN3LgqHh8PZ3undcZmB2bgrnVjU+HzPFnwPFfGrmVRyFx7pyWEOA0ygy8mPKVCQWSQh9Vm1kvbKugY7CTDPwWtSnvqbxBCiJPw0Gm5/6ZZJEb4UFjVxq83H2BvUaO90zor033j+J/0H+CmcWVL2Zu8U7nNIT+VEGKqkQJfTGg55Uarb1rb15gFwJzAmVaNI4SYOnw8nPnfK1O5cXU8FouFTe8U88z7hx2yOJ7mEcpPM27Dz8WXbTUf80LJa4yYR+ydlhDiJKTAFxOWacTM5q2HefCVXKv9Uewb7ifPWIhB5yeba4UQ40qhULAoNYjffm8m0/zdcXXROOweH73Ol59l3EaYewj7GrJ4vOAZ6ZUvxAQmBb6YsEpq2ukbNJERq7faH8Xs5jyGzSbmBGQ67B9eIcTE5u+t457rM7h0YSQAZouF/MoWh5vNd9e6cWf6D5juE0dxayl/y36C7qEee6clhDgBKfDFhJV1/HAra3bP2ddwCAUKZgXMsFoMIYTQqJWoVaN/cj84UMcjr+Xz5NZiBoZMds7szDirnfhhyo3MDsigpruOhw49Skt/q73TEkJ8gxT4YkIymy3klBvx0GmICfGySoym3maqu2qI94nB29k6MYQQ4psy4/REBHqwt6iJ+57Jorap294pnRGVUsX1CVeyctpSjP2tPJj1KHXd9fZOSwjxFVLgiwmprK6D7r5hZsTqUSqts3RmX+MhAOYEZFjl/oUQ4kT8vFz4xXUzOH9WKE1tffz+uUN8klPvUEt2FAoFl0St5orYS+gZ7uVvOf+mpqvO3mkJIY6TAl9MSE3tfWjUSjLiDFa5f7PFzIHGbFzUzqTok6wSQwghvotapeSqZTHcsS4FJ42S57aXUlLbYe+0ztiSkPlcn3AlA6YB/p6ziarOGnunJIRADroSE9TitGDmTA9ArbbO7H1JWzkdg50sCJqNVqWxSgwhhDiVtGg/7ts4i/3FTSRM87Z3OmdldmAGKqWKZ4tf4Z+5m/hR6k1Ee0XYOy0hpjSZwRcTlpNWhUppnV/RfQ1f9L7PtMr9CyHE6fLxcGb1nGkAWCwWnv+glL2FjnUwVqZ/GhsTr2XYbOLR3Ccpbauwd0pCTGlS4IsJZ3d+A5/lH2PYZJ2DVPqG+8lrKcJfpydcet8LISaQ1q4B9hU1sWlrMa9+XIHZ7Djr8tMNydySvAGzxcxj+U9xuLXM3ikJMWVJgS8mFIvFwtufV/PSR+VWi3GoOQ+T9L4XQkxAfp4u/GpDBgE+OrYdqOWR/+TROzBs77ROW7LfdG5JuQEL8Hj+0xS2HLZ3SkJMSVLgiwmltqmHls4BUqN80ahVVomxvyFrtPd9oPS+F0JMPIG+rvxqQyYpUb4UVrXx+2ezaGjttXdapy3RN55bU76HQqHk3wXPkWcstHdKQkw5UuCLCeVQWTMAmVbqntPY20x1Vy3xPjF4OXlaJYYQQpwrnbOaOy5PYfWcMJra+8kpb7F3Smck3ieG21I3olKqeLLwBbKb8+2dkhBTihT4YkI5VGpEq1aSHOlrlfvf/0Xve9lcK4SY4JRKBVcsieaua9JZPXt0v5DZbHGYfvkx3lHcnvp9tEoNTxW+yMHGHHunJMSUIQW+mDDqW3ppaO0jKdIXJ+34L88xW8zsbziEi9qZVL/Ecb9/IYSwhrgw77H9Qv/ZVckTbxcxOGydJgTjLcornNvTbsZZ7cSzxa+MdTATQliXFPhiwugfMBER6EFmnN4q91/SVk7nUBcZ/mlopPe9EMLBDJvMVNR3cuBwM3984RCtnQP2Tum0RHiGcUfaLejULrxw+DX2HDtg75SEmPSkwBcTRnSIJ7++IZPZ0/2tcv9jve8DZHmOEMLxaNRK/m99OotSA6lt6uF3zx6krM4xTr8N8wjhjvRb0GlceKnkdbKacu2dkhCTmhT4YsKxRuvKvuG+473vDYR7hI77/QshhC1o1EpuWBXPtSti6e038eArORw43GTvtE5LiHsQt6d9HyfV6HKdgpZie6ckxKQlBb6YED7JreeZ90to67LORG9yKQAAIABJREFUR85jve8DM6T3vRDCoSkUCs7LCOGnV6WiUSspP9pp75ROW5h7CD9K3YhaMdpdp6xdTrwVwhqkwBcTwu78BnbnN6BRW+dXcl/DodHe9wHS+14IMTkkhPvw2xtncvV5McDoQYGO0GEnyiucW5JvAIuFx/Kfobqzxt4pCfH/2bvv+KjuM13gzznT1EbSSBr13oUEEqIZsAHTDMbYuCIXUpx1Nslmd5PYd+8m+7nxvXtjr292new6ye4m2bWdYhtswMRgbIyNMZgmQBVR1HsZjfqojDQz5/4hwHYMqJ2ZM+X5/mXQOb/zhCPCqzPveX9ehwU+Ka53cAz17YPISgyFPkAr+/qdw11oHGxGTlgmZ98TkVeJNARAFCc/lXz/TDN+/U4VJmwOhVNNLSc8E1/Pexw2hw2/Kn8ZbZYOpSMReRUW+KS489XdAIBFTpqec7qDs++JyLvZHQ6U1ZpRfMmEn79ZhpExm9KRplRgzMMT2Q9j1DaKX5T+Fl0j3UpHIvIaLPBJceevdEMAUJgpf4HvkBwo7iyBv9ofCyLmyb4+EZE7UIkint5egMJMIy439+OF10rQN2RVOtaUlsUswvbMbRiasOAXpb9F71if0pGIvAILfFLU4PA4alr6kRYXgtAgnezrX7o6+34xZ98TkZfTalT4zrY83FkYh9ZuC57/wzm0m4eVjjWlVfErcF/qZvRZ+/FS6W8wYB1SOhKRx2OBT4qyOySsX5yAO/JjnLL+mWuz72MWOWV9IiJ3IooCntiQiQdXp6Jn0IoPz7cqHWlaNibfiY1Jd6J7tAe/LPsthidGlI5E5NHUSgcg32bQ6/Do+gynrH1t9n10QCSS9Jx9T0S+QRAEbFmejIRIPeYlG5SOM233pm7CmM2KY20n8avy/8bfFDwFP7Wf0rGIPBKf4JPX+mz2/WLOvicin7MgLRxq1eQ/88fK2/HuiQaFE92aIAh4OPNeLItehKbBFvy64ncYt08oHYvII7HAJ8VcburDj//7DMpqzE5Z/8zV2fdLohc6ZX0iIk9gHbdj3/F6/OfeChw42ah0nFsSBRGPZz+EAmMeqvvr8HLVH2F32JWOReRxWOCTYsrrzGjtHoZaJf/TdfNoLxoGm5FlSOfseyLyaTqtCv/z8UJEGvyx91g9dh+tc+sNsVSiCl/LfQzZhgxUmi/hrZp33DovkTtigU+KKa/tgVYjIisxVPa1z3eVAQAWRxXIvjYRkaeJMgTghb+6A1FhATh4ugmvHa6Gw42LZo2oxl/M34G4oBgcbzuFD5s/UToSkUdhgU+K6OobQWfvCHKTw6BRq2Rf/1xXGdSCCvnGPNnXJiLyREaDP/7+8ULEGwNxpKQNh8+2KB3plvzVfvj2gq8jVBeCfXUHcb6rXOlIRB6DBT4poqK2B8DkS2Bya7d0on24E/PCsxGg8Zd9fSIiTxUSqMXfPVaIOwvjsKYgTuk4UzL4heI7+U/CT6XD7y/uRG2/e78oTOQuWOCTIirqJl+sXZAWIfvan7Xn5Mu+NhGRpwvy12DHxizotJOfnta2DmB8wn1fZI0LisFfzN8BByT8puJ36Bo2KR2JyO2xwCdFrC6Iw5blSTDo5d29VpIknOsqg1alxfyIebKuTUTkbRo6BvHTN0rxr2+VY9RqUzrOTeWEZeKxrAcxbBvBv5e/jKFxi9KRiNwaC3xSxOLsSDy4Ok32dZuGWmAe68WCiHnQqrSyr09E5E3ijUHITwvH5eZ+vLirDMNj7jt3fnnsEmxOXg/zWC/+o+IVjNvHlY5E5LZY4JPL2ewOp619jtNziIimTaMW8a1tuVieG4369kH89PVSDA67b+G8JWXD9Y2wXq16Aw7Jef+eEHkyFvjkUg5Jwg9/fQr/+acLTljbgZKucgSo/ZETlin7+kRE3kglivjGPTm4c2EcWkwWvPBaCfqGrErHuiFBEPBY9oPINKSj3FyFvTUHlI5E5JZY4JNLNXcNoWfQCo1K/m+92v56DIwPYWHkfKhFtezrExF5K1EQ8MTGTGxelghRFJyyAaFc1KIaT+XtQExgFD5u/RRHWo4rHYnI7bDAJ5cqvzoeMz9d/uk5bM8hIpo9QRDw0Jo0/MOORdAHTL7D5K47yAZo/PGd/CcRotVjb80BlJkqlY5E5FZY4JNLVdSZoRIFzEsOk3Vdm8OGUlMlQrR6pIemyro2EZGvEAQB/rrJT0AbOgbxk9+fc9t2nTA/A76d/yS0Kg1evfgG6gealI5E5DZY4JPLDFisaOgYQkZ8CAL85G2hudRbjRHbKAqj8iEK/LYmIpqrqoZeNHQM4aevl6Df4p5FfoI+Dt/IewJ2yYFfV7yKntE+pSMRuQVWQuQyFfVszyEi8hRblifh7tuS0NU3in9+oxQDbjpdJzc8G49k3gfLxDB+W/k7js8kAgt8cqHc5DA8tj4DizKNsq47bh9HhfkiIvzCkKRPkHVtIiJfJQgCHlydiruWJqCjZwT/8kYpBkfcs3i+I245VsYuRYulHa9f3uO27w4QuQoLfHKZsGA/rF+cgIhQf1nXrTRfwrh9HIuiCiAI7jv5gYjI0wiCgEfuTMf6xfFoMw/j5XcvKR3pph7O3IaU4CSc7SrlZB3yeSzwySVGxmxO2+DqPNtziIicRhAEPLouA/euTMZj6zOUjnNTGlGNp+bvQIhWj7dr38Xl3hqlIxEphgU+ucS+T+vxty99ilaTRdZ1RyZGUdVzGbGB0YgNipZ1bSIimiQIArbdkYpIQwAAwNw/ipExm8KpvixEF4yn5n8FKkHEyxdeg3m0V+lIRIpggU8uUVHXA4ckITo8QNZ1y7svwCbZsYhP74mIXKJvyIp/eq0EP3+zDKNW9yvyU0KS8EjWNgzbRvCbyt/BypduyQexwCen6+wdgalvFLnJYVDLvIPtZ9Nz8mVdl4iIbiwkUIvsxFDUtQ/i52+VY2zc/Yr8lbHLcEfccrRZOvDHS2/ypVvyOdOqtp5//nls374dRUVFqKio+MLXOjo68Oijj+Khhx7Cj3/8Y6eEJM9WXmsGAOSnhcu67uD4EK701SI5OBER/vKuTURENyaKAp7ckoOlOZGobR3Av71VAeu4XelYX/JQxlakhSSjxFSBw81HlY5D5FJTFvjFxcVoamrCrl278Nxzz+G55577wtdfeOEFPPnkk9i9ezdUKhXa29udFpY8U0Xd5Pz7BTIX+CWmCkiQ+HItEZGLqUQRT22dh0VZRlxp6ccv367EhM05gxRmSy2q8RfzdyBUF4J36t5HVc8VpSMRucyUBf6pU6ewfv16AEBaWhoGBgZgsUy+KOlwOHD+/HmsXbsWAPDss88iNjbWiXHJ04xabahu6UdytB4hQTpZ1z7fVQYBAgojF8i6LhERTU0livjLe3ORnxaO+vZBdPWNKB3pS4K1enxz/legElV4pep1mEbMSkcicokpC3yz2QyDwXD912FhYeju7gYA9Pb2IjAwEP/0T/+ERx99FC+++KLzkpJH0mlV+OETi/Dwnemyrtsz2of6gSZkGNIQoguWdW0iIpoetUrEt7fl4R92LEK8MUjpODeUFJyAoqwHMGobxW8qf4cx25jSkYicTj3TEz7/oookSejq6sJXvvIVxMXF4Zvf/CaOHj2KNWvW3PR8gyEAarVqVmHlZDTqlY7gM6Ii5S/ALw9PbrZyZ9oy3ksPxHvmuXjvPJuz7l/c1Q/vByxWfHy+BfetSnOrjQfvNd4Js82E92uOYlf9Xjy94ptulW+6+PfPs7ny/k1Z4EdGRsJs/uwjLZPJBKPRCAAwGAyIjY1FYmIiAGD58uWoqam5ZYHf5wYf4RmNenR3Dykdw+s5JAkd5mHERgTK+n+kRqMen9SfgUpQId0/g/fSw/Dvn+fivfNsrrh/v3q7EuevdMNkHsb9q1Kdeq2ZujvuLtR1N6O4tQx/PPcnbEpep3SkGeHfP8/mrPt3sx8apmzRWblyJQ4dOgQAqKqqQmRkJIKCJj+GU6vVSEhIQGNj4/Wvp6SkyBSZPF1jxxD+138XY9eRWlnXbR3sQJulA/PCMxGgkXeuPhERzd7jGzJhDPXD/pONeP9Ms9JxvkAlqvCNvCdg0IXiQP0HuNRTrXQkIqeZssAvLCxEbm4uioqK8JOf/ATPPvss9u7di8OHDwMAfvSjH+GHP/whioqKoNfrr79wS3RtPGZGfIis655oOgcAWBTJ6TlERO4kNEiHZ4oWwqDX4c2Pa3Gs3L0m6+m1QXhq/g6IgojfXdyJASufiJN3mlYP/jPPPPOFX2dnZ1//76SkJLzxxhvypiKvUFHXA5UoYF5ymGxrSpKEE81noRE1mB8xT7Z1iYhIHsZQfzy9vQAvvFaC3713GX5aFZbmRCkd67qk4ATcl7YZe2sP4PcXd+KvCr4BUeC+n+Rd+B1NTtE3ZEVT1xCyEkPhr5vxu9w31TzUik5LNxZEzIOfWt6xm0REJI/YiEA8vb0A+kAtdBrlB2v8uTsTbkdueDYu99Xgo+ZjSschkh0LfHKKyvrJza3y0yJkXfd8VzkAYBE3tyIicmtJ0Xr8v28tR366vP8OyEEUROzIeQQhWj3eqX8fDQNNSkcikhULfHKKC1cL/AXp8u1e65AcOG8qR6DGH/PCs2Rbl4iInOPa0/tRqw2/2FOBho5BhRN9Rq8NwtdyH4UkSXil6nWMTIwqHYlINizwySn+4p55eKaoAFEG+abcNA42o986gCVxBdCI8rX9EBGRc9W1D6Cs1oyf7SpDW7dF6TjXZRrSsSl5LXrG+vD6lT1f2OuHyJOxwCen0GpUsr5cCwAlXRUAgOWJhbKuS0REzpWXEo6vbcrG8JgNL+4qg3nAfZ6Wb05ej7SQZJSaKnCi/YzScYhkwQKfZNfQMYh+i1XWNR2SA6XdlfBX+2N+ZPbUJxARkVu5Iz8W29emo98yjhd3lWNwZFzpSAAm5+N/LfdRBKj9sbvmHbRbOpWORDRnLPBJdi+/ewl//+tTsNkdsq15rT0nPyIXahXbc4iIPNFdSxOx+bZEdPWO4N/eqoDdId+/E3MR5mfAEzkPY8Jhw8tVr2Hc7h4/fBDNFgt8klXv4BjazMPITAiFWiXft1eJabI9Z2HkfNnWJCIi13todRpWF8RibWEcVKL7lCH5xjysjl+BjuEu7K7Zr3Qcojnho1CSVVVDL4DJfku5OCQHSk2T7TnZYRmyrUtERK4nCAK+uumzVkuHY/LFVlEUlIp03f1pW1Db34AT7WeQZUjHoqh8pSMRzYr7/OhMXuHC9QJfvhdsv9Cew+k5REReY8LmwH/+6QJe+7DaLSbYaFQafCP3cWhVWrx+eQ/Mo71KRyKaFRb4JBuHQ8LFxl6EBesQEy7feEy25xAReacJmwOdvaP4uKQN+080Kh0HABAVGIntmdswZh/DK1Wvw+6wKx2JaMZY4JNs2szDGB6zIS8lDIIgz0etbM8hIvJeAX5q/GB7PiJC/LDv0wZ8XNKqdCQAwLLoRVgStRCNg83YX39I6ThEM8YCn2STEBmEf/3r27F1RYpsa7I9h4jIu4UG6fD09gIEB2jwxw+qcfaySelIEAQBRVn3w+gfjsPNR3G5t0bpSEQzwgKfZBUcqEV4iJ9s67E9h4jI+0WFBeD7jxRAp1XhN+9UoatvROlI8FP74eu5j0EURPzx0lsYtY0pHYlo2ljgkyxGrTaU1ZoxNm6TbU225xAR+Y6kaD3++sEFePjOdEQZ5HuPay6SghNwV9Kd6LP24+3aA0rHIZo2Fvgki6qGXry0uwKHiltkW7NxsAX91gEsiJjH9hwiIh+Qk2TAxiUJAABJktxit9tNyesQFxSDE+3FuNRTrXQcomlhgU+ycMZ4zBJTOQCgMHKBbGsSEZH7kyQJf/igGv/31XPoG7IqmkUtqrEj5xGIgojXLu/GqG1U0TxE08ECn+ZMkiRUNfQg0E+NlJhgWdZkew4Rke8SBAGGIC16Bsfw8zfLMDI2oWieBH0c7kpaiz5rP/bWvKtoFqLpYIFPc9bZO4KeQStyksNk24mQ7TlERL7tnhXJWFsYh9buYby0pxITNmXn0W9KXou4oBic7CjGxZ4rimYhmgoLfJqzC/Xyt+eUXp2ew/YcIiLfJAgCHluficVZRlS39OM371yEw6HcbreTrTrb2apDHoEFPs1Zc9cQAPkKfIfkQImpAv5qP7bnEBH5MFEU8NTWechODMX56m6cudilaJ4EfSw2Ja1Fv3UAe2s4VYfcFwt8mrMnt+Tg/31rOcKC5Zl//1l7Dje3IiLydRq1Ct99YAEeW5+B23KjlI6Du5LXIj4oFic7zqKKrTrkpljg05wJggBjqL9s67E9h4iIPi/AT431ixMgCJPvebV1WxTL8vmpOq+zVYfcFAt8mpMLDT2obR2QrS/ys+k5bM8hIqIvO3i6CT9+uRjnr3QrliFeH4vNyevQbx3AHrbqkBtigU9z8uaRWvzzzlLY7A5Z1mscbEGftZ/tOUREdEM5SQZo1Sr8+p0qXGnuUyzHXUlrkRAUi1MdZ3HBfEmxHEQ3wgKfZq1vyIrW7mFkJoRCq1HJsibbc4iI6FZSYoLxVw/kQZIkvLSnEq0mZdp1VKIKO+Zth0pQ4fXLezAywVYdch8s8GnWqmTevZbtOURENB15KeH4xpYcjFpt+NmbZTAPKFNcxwXFYHPyOgyMD2JPzX5FMhDdCAt8mrULDT0A5Cvwm9ieQ0RE03RbbjSK1qaj3zKOw2dbFcuxMelOJOjjcLrzHFt1yG2wwKdZcTgkXGzsg0GvQ2xEoCxrlrA9h4iIZmDj0kT81f3zsX1tumIZVKIKO3Ie+VyrzohiWYiuYYFPs2IeHIMkSchNCbs+tmwu2J5DRESzsSjLCFGc/HeoqrFXtqEPMzHZqrMeA+ODeLv2XZdfn+jPscCnWYkM9ce//c0dsj01YXsOERHNRWl1N17cWYaXD16CQ5JndPNMbExag7igGJzsOIu6/kaXX5/o81jg06yJooBAP40sa7E9h4iI5mJechjS4oJxuqoLuz6qheTiIl8lqlCUdT8AYOeVvbA77C69PtHnscCnGRsZs+Hw2RaY+uWZWsD2HCIimiudVoW/fSgfsRGBOHyuBQdPN7k8Q2pIMlbELEX7cCc+bv3U5dcnuoYFPs3YpaY+vPFRDU5WdsiyHttziIhIDkH+GvzgkXyEBeuw55N6HC9vd3mG+9I3I0gTiHcbDqNvrN/l1ycCWODTLFRdH48ZLst619pzFkbOl2U9IiLyXWHBfvjBIwUI9FOj+FKXy/vxgzSB2JZ2N8bt43ir5h2XXpvoGj4upRmRJAkXGnrhr1MjJVYvy3qftedkypCQiIh8XWxEIP7+iUWIDPWDKMOkt5laFrMIpzrOorz7Ai6YLyEvIsflGci38Qk+zUhX3yjMA2OYl2yASpz7t0/j1fac+RHzoGF7DhERySQuIhAatQoAUFHXgxaTxWXXFgURRVkPQBREvFm9D+P2cZddmwhggU8zdKFe3t1rSzk9h4iInKhnYAy/2FOBn71Zhm6ZhkNMR2xQNNYlrELPWB/ea/zIZdclAljg0wwNjoxDrRJk6b+XJAml3ZXwU+nYnkNERE4RHuKHh+9Mx4BlHD/bVYbBYdc9Td+csh4GXSg+aj6GzuEul12XiAU+zcgDq9Lwy++tQniI35zXah5qRe9YH9tziIjIqTYuScDdtyWhq28UP3+rHKNWm0uuq1Np8XDmfbBLduy88rbLZ/OT72KBTzOm1ahkWafUVAkAWMj2HCIicrIHV6fi9gUxaOocwq/ersSEzeGS6+YbczE/Igc1/fUo7ixxyTWJWODTtBVf6sLJCx0Yn5j77nySJKHEVAGdSosctucQEZGTCYKAr27KwsKMCAyP2mCV4d+y6Xo44z5oRA321h7A8MSIy65LvosFPk3bu6ea8Op7VyDHB4wtljb0jPVifsQ8aFUaGVYkIiK6NZUo4i/vzcXfPbYQQf6u+7cn3D8Md6esh2ViGO/Uveey65LvYoFP0zJgsaLFZEFmQgh0MrToXG/PMXJzKyIich2tRgV/3eR7X7WtA9h3vN4lvfFrE+5AdGAUTrQXo2Gg2enXI9/GAp+m5UJDLwB5dq+d3NyqAlqVFvPCs+e8HhER0UxJkoTXPqzGOycacfB0k9OvpxbVKMq8HxIk7LyyF3aH61qEyPewwKdpqWqcLPBzZZh/32rpQPdoD/LCs9meQ0REihAEAX/9wHyEB+uw55N6fFzS6vRrZhhSsSx6EVot7fik7aTTr0e+iwU+TckhSbjY0IuQQC3ijYFzXq/s6uZWnJ5DRERKCgv2w9NFCxEcoMEfP6jG6YudTr/m/elbEKD2x4H6Q+i3Djj9euSbWODTlIZGJhCq1yEvNQyCIMxpLUmSUNJdAY2oQS7bc4iISGHRYQH4wfYC+OlU+O8Dl1B5dcd2Z9Frg7At7W5Y7ePYU7Pfqdci38UCn6YUEqjF//76Unx9c86c12of7oRpxIy88GzoVFoZ0hEREc1NYpQef/tQPmIjAhETHuD06y2PXYKk4ASUmCpQ29/g9OuR72GBT9MminN7eg8Apdfbczg9h4iI3EdmQiie/foSRIT4A4BTJ+uIgoiHM+4FAOyueQcOyTWbbpHvYIFPt2SdsOP1w9WobumXZb1SUyU0ohq54XP/NICIiEhO4tU21NZuC/7PK2fR2eu8TalSQpKwOKoALUNtONNx3mnXId/EAp9uqbqlHx+eb0V5nXnOa7VbOtE5YsK88Gz4qXUypCMiIpJfffsgmk0WvLizFL2DY067zra0u6ERNXin/n2M2Zx3HfI9LPDplqquzb9Pnvt4zNLuyc2tCrm5FRERubFV+bF4cHUqegateHFXGQZHxp1yHYNfKDYkrcHg+BAONX3slGuQb2KBT7dU1dALrVpEenzonNcqNVVALaqRF8H2HCIicm9335aETcsS0dEzgp/tKsPI2IRTrrMhcTVCdSE40nwM5tFep1yDfA8LfLqpviEr2szDyEwMhUY9t2+VzuEudAx3YV5YFvzUfjIlJCIicg5BEPDwmjSsKYhFc5cFv91/0SnX0aq02JZ2N2ySHW/XvuuUa5DvUSsdgNzXhYbJWcCytOeYJttzOD2HiIg8hSAIeOKuLKjVIlblxzrtOoujCvBJ60mUdVeipq8OGYY0p12LfAOf4NNNSRIQHuyH3BR5+u/Vggrz2Z5DREQeRBQEPLY+E/HGIADA4Mg4bHZ5x1oKgoCHMrcCAHbX7OfYTJozFvh0U6vyY/HTby9HbETgnNbpGulGm6UD2WGZ8Ff7y5SOiIjItfqGrHj+D+fxXwcuwuGQd05+cnAilkYXotXSjlMdZ2Vdm3wPC3y6JUEQIAhz2+DqWntOYeQCOSIREREpIkCnRkigFsWXTPj9ocuyb4Z1X9pmaEUN9tcdwijHZtIcsMCnGzpV1Yl9x+tlGQ1WaqqASlBhfsQ8GZIREREpQ6dV4W8fykdStB7Hyjuw86NaWYv8UF0INiatxdCEBYcaj8i2LvkeFvh0Q8fL27H/RCPm9uweMI2Y0WppR3ZYBgI0bM8hIiLPFuCnxg8eyUdsRCAOn2vBvuMNsq6/LnEVDLpQfNxyHN0jPbKuTb6DBT59ydi4DTWtA0iM1kMfoJ3TWmXXpudwcysiIvIS+gAtnt5egMhQfxw62wzzwKhsa2tVGtyffm1s5gHZ1iXfwjGZ9CVXmvthd0jIk2V6TgVEQcQCY64MyYiIiNyDQa/DM0UF6LeMIyJE3k+oCyPz8UnrSZSbq3CltxZZYemyrk/ej0/w6UuqGiZ30sud4/x782gPmofakGVIR6AmQI5oREREbiMi1B/p8SEAgJExGyrqzLKsKwgCHsq4FwIE7Knl2EyaORb49CVVjb3QaVRIiwuZ0zqcnkNERL7iP/ZV4qXdlTh/pVuW9RKD47EsZhHaLB040V4sy5rkO1jg0xdM2ByIMwahMDMCGvXcvj1KTZWT7TkRbM8hIiLvtm1VKjQaEb9+58L1neDn6t7UTdCptDhQfwjD4yOyrEm+gQU+fYFGLeI72/Lw1Na5FeU9o31oGmpBZmgagrRz2yiLiIjI3aXFhuBvHlwAQMAv91SiuqV/zmuG6IJxV9JaWCaGsafq4NxDks9ggU9OUdpdAQBYGMnpOURE5Btykgz4zv15sDsk/NvucjR1Ds15zbUJdyDcz4D3ao/CPMqxmTQ9LPDpOodDwr/vu4ATlR1zXqvMVAkBAvKNeTIkIyIi8gwF6RF4aus8TNgcMPXPfXymRqXBvambYHfYsb/+kAwJyRewwKfrGjuHcO6yac4fK/aN9aNhsBkZhjTotUEypSMiIvIMS3Oi8MJfLseS7EhZ1iuMykeqIRHnusrQNNgiy5rk3Vjg03VVjVfHY85x/n2pabI9p5DtOURE5KPCgv0AABM2O/74wRX0DVlnvZYoiHgi/34AwL7ag5AkSZaM5L1Y4NN1VQ29EADMm+P8+/OmCggQUMDda4mIyMcVXzLhSEkbXtxVhqGR8VmvkxeVjXnhWajur8PF3isyJiRvNK0C//nnn8f27dtRVFSEioqKGx7z4osvYseOHbKGI9cZtdpQ1zaA5JhgBPlrZr1Oz2gvGgebkWVIZ3sOERH5vBV50diwOAHt5mH87M1yjIzZZr3WtrS7IUDAvtqD3PyKbmnKAr+4uBhNTU3YtWsXnnvuOTz33HNfOqa2thZnz551SkByjSvN/bA7pLm353RzcysiIqJrBEFA0bp03L4gBk2dQ3hpdzmsE/ZZrRUXFINl0YvQPtyJM50lMiclbzJlgX/q1CmsX78eAJCWloaBgQFYLJYvHPPCCy/g+9//vnMSkktoNCJykgxYkBo+p3XOd5VDFETkR3J6DhERETBZ5H9tUzYWZ0eiunUAv3q7Eo5Z9tHfk7oRGlGNA/WHMG6fkDkpeQuDuQrOAAAgAElEQVT1VAeYzWbk5n626VFYWBi6u7sRFDTZfrF3714sXboUcXFx07qgwRAAtVo1y7jyMRr1SkdwK2uMeqxZkjSnNbos3WgeakV+9DykxEbLlOzGeP88G++f5+K982y8f8r60deX4flXi1GYFYmoyOAZn2806mGEHnf3rsWfLn+As31nsS3nLickJWdw5d+/KQv8P/f5N7f7+/uxd+9evPLKK+jq6prW+X19ym+1bDTq0d09980n6Is+bDwFAMgLzXXqny/vn2fj/fNcvHeejffPPXzr3nkQBQHd3UPXn+KLgjDleZ+/f7cbV+LD2k/x9sX3kR+SjyANd4x3d876+3ezHxqmbNGJjIyE2Wy+/muTyQSj0QgAOH36NHp7e/H444/ju9/9LqqqqvD888/LFJlc5czFLvx2fxU6eobntE6JqRwqQYUCY+7UBxMREfmga8W8wyHh1fcuY+eHNTMeexmg8cem5LUYtY3hUOMRZ8QkDzdlgb9y5UocOjS5c1pVVRUiIyOvt+ds2rQJBw8exJtvvolf/vKXyM3NxY9+9CPnJibZnb9iwqmqrmk9QbgZ00g3WiztyA7LQIAmQMZ0RERE3mds3IaG9kF8eL4Vbx+vn/H5d8SvQLifAcdaT8I82uuEhOTJpizwCwsLkZubi6KiIvzkJz/Bs88+i7179+Lw4cOuyEdOZnc4cLGxDxEhfog0+M96nZKrm1stisyXKxoREZHXCvDT4OmiAkQa/HHgZBMOnm6a0fkaUY2tqZtgk+zYX/++k1KSp5pWD/4zzzzzhV9nZ2d/6Zj4+Hj84Q9/kCcVuUxjxxBGrDYsyYmEMIcn+CWmCqgFFeZHzJMxHRERkfcKDdLhmaIC/NMfS7D7aB38tCqsLYyf9vmLovLxUcsxnOsqw7rEVUjUT/9c8m7cydbHVTVMfqyXO4fdazuHTWizdCAnPBMBmtl/CkBERORrIkL88T8eXYjgAA3++EE16tsHp32uKIjYlnY3AGBf7cEZ9/KT92KB7+MuNPZCEICcZMOs1ygxlQMACtmeQ0RENGPRYQF4umgh7l+VipSYmY1SzA7LQE5YJq701eJSb7WTEpKnYYHvwyRJQnZiKFbmxSDQTzPrdUpMFVCLarbnEBERzVJCZBC2rki+3i5r6h+d9rnb0u6GAAH76g7CITmcFZE8CAt8HyYIAh5YlYYnt+TMeo12Syc6hruQG54Nf7WfjOmIiIh8077j9fjxf51BdUv/tI6P18diaXQh2iwdONtZ6uR05AlY4NOcXJueUxi5QOEkRERE3iElJhh2h4R/fascDR3T68m/J3Uj1KIa++sPYcI+4eSE5O5Y4PsoSZLwLztLsffYzGfvfn6NElM5NKIGeeGz/xSAiIiIPpOfHoFv3psL64QdP3+zHG3dlinPCfMzYE38SvRZ+3G09YQLUpI7Y4Hvozp7R3CxsW9Ou9e2D3eia6QbeeHZ8FPrZExHRETk25ZkR+Jrm7JhGZ3Av+wsQ7t56iL/rqQ7EaD2x6GmIxieGHFBSnJXLPB91IX6yfGY81PDZ71GSdfV6TlRnJ5DREQktzvyY/HougwMDI/jwKcNUx4foAnAXclrMWobw+Gmo84PSG6LBb6PqmzoAQDkpcxu/r0kSThvKodW1CAv/MsbnxEREdHcbViSgO8/ko9v3Js3reNXxa1AqC4ER1tPYMA6/Zn65F1Y4Pug8Qk7rjT3I84YiLDg2U2+abW0o3u0B/Mj5kGr0sqckIiIiK6ZnxoOlTg5PvNSYy8cjptvaKVVabA5eR0mHBN4r/EjV0UkN8MC3wddaenHhM0xp/ac89faczg9h4iIyCXOXOzCP+8sw+sfVt9y19rlMUtg9A/HifYz6B7pcWFCchcs8H1QSKAWq/JjUZhhnNX5k9NzKqBTaTGP7TlEREQusSAtHPHGQBwpacOh4pabHqcSVdiaehcckgPvNnzgwoTkLljg+6DEKD2+tjkb6fEhszq/eagVPWO9V9tzZr8DLhEREU2fv06N7z2cj9AgLd78uBZnL5tueuzCyAWID4rFua4ytFk6XJiS3AELfJqx86bJ9pxFkZyeQ0RE5EphwX743sP58NOq8Nv9F1HTeuPdbkVBxL1pmyBBwv76912ckpTGAt/HHC1rw3N/ODftnfH+nCRJKOmqgJ/KDzlhmTKnIyIioqkkRunxnW15cDgkfHiu9abHzQvLQlpICirNl1DX3+i6gKQ4Fvg+pqK2B3Vtgwj0n11rTeNgC/qs/VhgnAcN23OIiIgUkZcajmeKCvDU1nk3PUYQBNyXthkA8E79e7d8MZe8Cwt8H2KzO3CpqQ9RYQGIDPWf1RolbM8hIiJyC9lJBqhVk6XcleY+WCfsXzomLTQZeeHZqO1vwMXealdHJIWwwPchNS39sE7YMX+Wm1s5JAdKTBXwV/sjOyxD5nREREQ0Gxcbe/HTN0rx2/0Xbzgjf2vqJgDA/rr34JAcro5HCmCB70MqG3oBAPPTZjf/vmGgGf3WAeQbc6EW1XJGIyIiolnKTAhFVkIoSqq7sfNIzZe+Hq+PxeKoArRY2lFqqlQgIbkaC3wfcqG+Bxq1iKyE0Fmdf609p5DtOURERG5DrRLx3QfmIzYiEB+ea8UHZ788I/+elLsgCiIONByC3fHlVh7yLizwfYQkSVi/OAH3LE+CVqOa8fkOyYFSUwUC1QHINqQ7ISERERHNVoCfBt97eAFCArXY9VENymvNX/i6MSAcK2KXwjRixunOcwqlJFdhge8jBEHAqvxYbF2ZMqvz6/obMTA+hHxjHlTizH9AICIiIueKCPHH3zy0AGq1iEPFzV+amrM5eR00ogYHGz7EhH1CoZTkCizwfYRjjqOxzpnKAACFUQvkiENEREROkBITjKe3F+BvH86HIAhf+FqoLgRr4lei3zqAY22nFEpIrsAC3wfYHQ78j38/id+/f3lW59scNpR2VSBYq0cW23OIiIjcWmZCKHRX23FbTRbYHZ9NztmQtAb+aj8cajqCUduYUhHJyVjg+4D69kH0DVmBP/tJfrou9VZj2DaCRVH5EAV+yxAREXmCi429+MffncObR+qu/16gJgDrE1djeGIEHzUfUzAdOROrNR9QWd8DALOef3+2sxQAsCRqoWyZiIiIyLlSYoJhDPXD4XMtOF7Rfv3318TfDr0mCEdajmFo3KJgQnIWFvg+oLK+FypRQHaSYcbnjtrGUGGuQlSAEYn6eCekIyIiImfw16nxNw8tQKCfGn84dAW1bQMAAD+1DptS1sFqH8ehpiMKpyRnYIHv5QaHx9HUOYSM+BD462a+OVV59wVMOGxYErXwSy/rEBERkXuLMgTgW/flwe6Q8Mu9legdnOy7vz12GcL9DDjeegq9Y30KpyS5scD3clXXdq9Nnd3utdfacxazPYeIiMgj5aaEoWhtBgaHx7HrSC0AQC2qsSVlI2ySHe81fKRwQpIbC3wvlxYfgofWpKEw0zjjcwesg7jSV4uU4EQYA2b3AwIREREpb/3ieDy6PgNf2ZR1/feWRC9EVEAkTneeg2nEfIuzydOwwPdykaH+uPu2JESFBcz43PNdZZAgYXE0n94TERF5MkEQsGFxAgL9NACA4bEJiIKIe1I3wiE5cLDhsMIJSU4s8L3Y+IR9Thtcne0qhSiIWBSZL2MqIiIiUtKF+h783X+cQlmNGQXGPMQFxeBcVxnaLZ1KRyOZsMD3Yu+facYPfnkCDR2DMz63a9iE5qE25IRlQq8NckI6IiIiUoI+QAu73YHf7K9CR88otqbeBQkS3m34QOloJBMW+F6ssqEHlpEJRBn8Z3zu2S7OviciIvJGSdF6PLklB2PjdvxidwVSAtORHJyIsu4LaB5sVToeyYAFvpeyjE6gvn0QqXHBCLjabzddkiThbGcptCotFhhznZSQiIiIlLI0JwpblifB1D+KV9+7gq0pdwEA9jccUjgZyYEFvpe62NgLSZrdeMyGwWaYx3qRH5EHnUrrhHRERESktPvvSEVWQihKqrvR3uSPjNBUXOy5grr+RqWj0RyxwPdSlfU9AID5qWEzPvfa7PslnJ5DRETktURRwDfvzcWiTCMWZhixNXUTAGB//fuQ5jCkg5THAt8LSZKEC/W90AdokBiln9G5docdJaZy6DVByDakOykhERERuQODXoe/emA+DHod0kKTMS88CzX99bjSV6t0NJoDtdIBSH4SgG/em4vB4XGIgjCjcy/1VsMyMYzV8SuhElXOCUhERERu53JTH/x65gG4gv31h5BlSIcwwzqC3AOf4HshURCQk2TAsnlRMz732vScpWzPISIi8hmSJGHPsTqcKB5FgjYdjYPNuNBzSelYNEss8L3Q4PD4rM4bs1lR0V0Fo384kvQJMqciIiIidyUIAp7amgt/nQpN5bEAgP31h+CQHAono9lgge9lRq02PP2rE/jPP12Y8bkV5iqMOyawJGohP5IjIiLyMZGh/vja5hxYhwKgtSSizdKBsu6Z1xOkPBb4XuZSUx/sDglRhoAZn8vpOURERL5tSXYk1hTEYrAuCZAEHKj/gE/xPRALfC9zfTxm2szm3w+OD+FSbzWSghMQGWB0RjQiIiLyAEXrMhAbHAmdJQldI6brDwDJc7DA9yKSJKGirgeBfmqkxMxsPOb5rnJIkLAkik/viYiIfJlWo8L3HsrH363dDrWgwrsNh2Fz2JSORTPAAt+LNHYOoW/IigVpEVCJM7u1Z7tKIQoiFkXlOykdEREReYrwED9E68OxMu429Iz14kTbWaUj0QywwPcipTXdAIDCzJm12JhGutE02IIsQzqCtTN78k9ERETeK1VcCMkhYl/NB5iwTygdh6aJBb4X2bwsCd+6Lxd5KWEzOu9ab93S6EJnxCIiIiIPlZsQC11/GsYxjDcrPlI6Dk0TC3wv4q9TY2lOFHTa6e9AK0kSznaVQitqsCAi14npiIiIyNP469T4y9vuhWRX4WT3p+jsH1Q6Ek0DC3wv0WYexvDYzD86axpqQfdoDxYYc+Gn1jkhGREREXmy7PgoZPsvAtTj+PdP90OSJKUj0RRY4HuJVw5ewg9+eQJj4zN7y/367HtOzyEiIqKb+ItlWyA6tDBrq3C0olHpODQFFvheoG/Iivr2QaTFBsNPq572eXaHHee7yhGkCUROWKYTExIREZEnC9D4Y13CaghqG3r9Likdh6bAAt8LlM1yes7lvloMTVhQGJkPlTj9vn0iIiLyPZvTV0OvDcKJzpMYGrcoHYdugQW+FyipnizwF2bMrMAv7jwPAFgSzfYcIiIiujWdSou7ktbCah/Ha2UHcbqqU+lIdBMs8D3c8NgELjf3Iylaj/AQv+mfNzGCsu4LiAowIiU40YkJiYiIyFvcHncbQrUhqBwswe8/Kod5YFTpSHQDLPA9XE3LAOwOacbtOcWdJbA5bFgRuxSCIDgpHREREXkTjajG3SnrAdEBu7EGrxy8zKk6bogFvocryIjAT7+9HKvzY6d9jiRJONF+BipBhWXRi5yYjoiIiLzNbTGLEeEfDnVkKy53tOFoaZvSkejPsMD3AhEh/ggO1E77+IbBZnQMdyHfmAu9NsiJyYiIiMjbqEQVtqRsAAQH/BIb8ObHdTD1s1XHnbDA92DNXUOoauyFze6Y0Xkn2s8AAFbGLnNGLCIiIvJyi6MKEB0YBSGsFeOqQRwqblY6En0OC3wP9uG5Vry4swyNnUPTPmfUNoqSrnKE+4Uh05DmxHRERETkrURBxD0pGyFBQvZSEx5dl6F0JPocFvgeyu5woKzWjJAgLVJjg6d93tnOMow7JrAidilEgbefiIiIZqfAmIeEoFg0jl1B12gXAMDBF27dAis8D1XTMgDL6AQWZhghzmAKzsn2MxAFEctjFjsxHREREXk7QRBwT+pdAID99YfwzokGvLizjEW+G2CB76GubW5VmBkx7XOaB1vRYmlHXngOQnTTf+pPREREdCO54dlIDUlCpfkianoacampDx+ea1U6ls9jge+BJElCaU03/HVqZCcapn3eZy/XLnVWNCIiIvIhgiBg69Wn+Kq4GugDNNjzSR06e0cUTubbWOB7oH7LOBwSkJ8eDrVqerdwzGbFua4yhOpCMC88y8kJiYiIyFdkGtKRZUhHzUAtNqwOwITNgf9+9yIcDrbqKIUFvgcy6HX45++swBMbpl+ol5gqMGa3YkXMEr5cS0RERLK69hS/2laMJTlG1LUN4oOzLQqn8l2s9DyUKAgI8FNP+/gT7WcgQMDy2CVOTEVERES+KCUkCXnhOagbaMCypSroAzQw9bFNRyks8D1Md/8o3jnRMKO/NG2WDjQONiMnPBNhftPv2SciIiKarmsTdQ63foj/+42l+MqmbIUT+S4W+B7m3BUT9h1vwJXm/mmfc6K9GAB3riUiIiLnSdDHYmHkAjQPtaJhpPb67w+OjCuYyjexwPcwJdXdEAQgP2N64zHH7RMo7iyBXhuE+eE5Tk5HREREvuyelA0QIOBA/SHYHXb8+74L+MdXz2Js3KZ0NJ/CAt+D9FusqG8bREZ8KIIDtNM6p6y7EqO2USyPWQKVqHJyQiIiIvJl0YFRWBpdiPbhTpSaKhBl8EfvoBXvnGhUOppPmVaB//zzz2P79u0oKipCRUXFF752+vRpPPLIIygqKsIPf/hDOBwOpwQloKzGDAlAYaZx2udcm32/Ioaz74mIiMj57k5ZD1EQsb/hA2y6LR4RIX44fLYFrSaL0tF8xpQFfnFxMZqamrBr1y4899xzeO65577w9R//+Md46aWXsHPnTgwPD+P48eNOC+vrru9eO832nK5hE2r7G5BlSIcxINyZ0YiIiIgAABH+4bgj7jaYR3twtvscntiYCbtDwu8/uAKHxNn4rjBlgX/q1CmsX78eAJCWloaBgQFYLJ/9BLZ3715ER0cDAMLCwtDX1+ekqL5NkiQE+muQER+CiFD/aZ3z2cu1fHpPRERErrM5eT10Ki3ea/gQGUlBWJRlRG3rAD6t6FA6mk+YssA3m80wGD4brRgWFobu7u7rvw4KCgIAmEwmnDhxAqtXr3ZCTBIEAX95by7+/vHCaR0/4bDhTOd5BGoCsMCY5+R0RERERJ/Ra4OwIXENLBPD+Kj5Ezy6LgMhgVrYubutS0x/p6SrpBt8tNLT04NvfetbePbZZ7/ww8CNGAwBUKuVf9nTaNQrHcGpTjafh2ViGPdkrkNslPfNvvf2++fteP88F++dZ+P982yedv8eMdyNTztO40jLcWxbsAEv/6+N0GqUrwGV4sr7N2WBHxkZCbPZfP3XJpMJRuNnL3laLBY89dRT+N73vofbb799ygv2ucGuZkajHt3dQ0rHmLYJmx2/fucibpsXhcXZkdM65/3LnwAAFhoKPOp/63R42v2jL+L981y8d56N98+zeer925S0Hjuv7MUfzr2NR7MfBABM2Bzos1gROc2WY2/grPt3sx8apmzRWblyJQ4dOgQAqKqqQmRk5PW2HAB44YUX8NWvfhWrVq2SKSr9uYuNfSip7kZd+8C0jjeP9uByXw3SQpIRHRjl5HREREREN7YiZgmiAow42XEWXcMmjE/Y8b9fKcZLuytgs3PyorNMWeAXFhYiNzcXRUVF+MlPfoJnn30We/fuxeHDhzE6Oop9+/Zh9+7d2LFjB3bs2IFdu3a5IrdPKa25Oj1nmuMxT7afBcCda4mIiEhZKlGFe9M2wyE58E79+9BqVMhKNKDdPIxDxc1Kx/Na0+rBf+aZZ77w6+zs7Ov/feHCBXkT0RfYHQ6U1pgRHKhFWmzINI6341THWfir/bAwcr4LEhIRERHdXH5ELlKCk1DWfQH1A014cHUqSq6YsP9EI5blRE17OiBNH3eydXNVDb0YGpnAoiwjRFGY8vgLPZcwOD6EpdGF0Kqmt9stERERkbMIgoBt6XcDAPbVvosAnRrb12Vg3ObAHw9X33CAC80NC3w3d6KyEwCwMi9mWsd/enXnWrbnEBERkbtID03B/Ih5qBtoRKV5cnBITpIBFXU9KKk2T70AzQgLfDeXk2TA4uxIpMRMPVqp3dKJiz1XkBqShLig6f1AQEREROQK96VthgABf6p7Dw7JgSc2ZiIuIhCBfjOe2k5T4J+om1uzMA5rFsZN69jDzUcBABsS1zgvEBEREdEsxARGYXnMEpzsKMbpznNYGbsM//iNpRCEqVuQaWb4BN+NzWR8VM9oH851lSE6MAp5ETlOTEVEREQ0O1tSN0AjavBu/WGM28evF/e9g2Po7FV+ryRvwQLfTXX0DOP7v/gUR0pap3X8kZZjcEgObExcA1HgbSUiIiL3E6oLwdqEOzAwPogjLZ8CAPqGrPiH/zqD/zpwEQ4HX7iVAytBN3XyQieGx2wI0E3dRWUZH8aJ9mIYdKFYHFXggnREREREs7MhaTUCNQE43HQUlvFhGPQ65KeFo759EJ+UtSkdzyuwwHdDDknCqapO+GlVWDiNza0+aT2BCccE1iWugkpUuSAhERER0ez4q/2xOXk9xuxjeL/pIwDAo+sy4K9TY/cn9RiwWBVO6PlY4Luhy0196B20Ykl2JHSaWxfsYzYrPmk9iUB1AFbELnVRQiIiIqLZuz3uNoT7GXCs9RTMo70ICdLhodWpGLXasPNIrdLxPB4LfDd0ffb9/KlHXZ7sKMawbQSr41dAx42tiIiIyANoRDW2pm6CXbJjf/37AIDVBXFIiQnGmYtduNDQo3BCz8YC382MjdtwvtoEY6gfMuJDbnmszWHDkebj0IoarI5f6aKERERERHO3KCofCfo4nOsqQ/NQK0RRwFc3ZWFhRgSiwwKUjufRWOC7GZ1Ghb97tBCPb8icci7sua4y9Fn7sSJ2KYK0gS5KSERERDR3oiBiW9rdAIC3a96FJElIjNLjrx9cgIgQf4XTeTYW+G5GEASkxgZjQVrELY9zSA4cbv4EoiBibcIqF6UjIiIikk92WAbywrNR3V+Hc11lX/japaY+zsafJRb4bmTAYkWLyTKtYy+YL6FzuAtLohYi3N/g5GREREREzvFw5jZoRDX21O7HyMQoAKChYxD//EYpfv/+ZUgSZ+PPFAt8N/JJWTuefbkY5y6bbnmcJEn4oOkoAGB94moXJCMiIiJyjgj/MGxKXo+hccv1F26To/UoSI/A5eZ+nLzQqXBCz8MC301IkoSTFzqh1YjITQm75bF1A41oGGzC/IgcxAZFuyghERERkXOsT1yFqIBIHG87jabBFgiCgMc2ZECrEbHrSC0soxNKR/QoLPDdRE3rAEz9o1iUaYT/FLvXftD0MQBgQ+KdrohGRERE5FRqUY2irG2QIGHnlb1wSA5EhPjjvttTYBmdwFsfczb+TLDAdxMnL3QAmHr2fZulA1U9l5EWkoy00GQXJCMiIiJyvkxDOpZGF6J5qA3H2k4BADYsTkC8MRDHKzpQ2zqgcELPwQLfDYxP2HH2sglhwTpkJ936hdnDV3vvNybx6T0RERF5lwfS74G/2h/76w5hwDoItUrEVzZl454VyUiMClI6nsdgge8GWrotcEjA8txoiLeYfd8z2ovzpnLEBkYjNzzbhQmJiIiInE+vDcJ9aZswZh/Dnpr9AID0uBA8sCoVWo1K4XSegwW+G0iLDcG/fvd2bFqWeMvjPmo5BofkwIakNVNugkVERETkiVbGLkNycCLOm8pxqbf6+u/bHQ58cLYF3f2jCqbzDCzw3YROq0Kgn+amXx8at+BkezHC/AxYFJnvwmREREREriMKIoqy7ocAAbuuvI0J++QEnYraHuz8qAavHa7mbPwpsMBX2OmLnTha1gbruP2Wxx1tPYEJhw3rElZBJfIjKiIiIvJeCfo4rIlfie7RHnzQfBQAUJARgZwkAyrqenD+SreyAd0cC3wFSZKE/Sca8frhGtgcjpseN2Ybw7HWkwjSBGJF7BIXJiQiIiJSxpbUjQjRBuODpo9hGjFDEAR85a4sqFUiXvuwGiNjNqUjui0W+Apq7BxCR88ICjIibtmec6K9GCO2UayOXwGtSuvChERERETK8Ff74aHMe2Fz2PBm9T5IkoSosADcsyIJA5ZxvH2sXumIbosFvoJOVF6dfZ93891ox+3jONJyHFqVFqviV7gqGhEREZHiFhrnIycsE5d6q1FiKgcAbF6WhJjwABwpaUW7eVjhhO6JBb5CJmwOnLnYheBALfJSw2563AdNH6PfOoA18SsRpAl0YUIiIiIiZQmCgO2Z90MtqrGnZj9GbWPQqEV8bXM2vr0tDzHhAUpHdEss8BVSUWfG8JgNy3OjoBJvfBvMoz043PwJQrTBuCtprYsTEhERESnPGBCOTUlrMTA+hAP1hwAAGfGhWJwdybHhN8ECXyE6rQrpcSFYmRdz02P21ByAzWHDA+lb4KfWuTAdERERkftYn7QGkQER+KT1JJqHWq///tDIOF597zJ6BsYUTOd+WOArJC8lHD/asQjxkTfedvlizxVUmKuQHpqCRVEFLk5HRERE5D40ohrbM++HBAlvXN4Lu2NyvHhlfQ+OlbdzNv6fYYGvgKlm3tscNrxV8ycIEPBwxn38+ImIiIh8XnZYBpZFL0LzUCv2X23VWZ4bjezEUJTVmlFSbVY4oftgge9i/RYrnv7VCRw42XjTYz5u+RSmETPuiFuOeH2s68IRERERubFHMu9DpH8EDjcfxQXzJQiCgB13ZUGtEvD6h9UYtXI2PsAC3+UOnmrCiNUGfcCN5973WwfwXuOHCNQE4J7UjS5OR0REROS+/NR+eDLvCahFNX5/aRf6xvoREx6Iu29LQt+QlbPxr2KB70J9Q1YcLWtHRIgfVs6/8cu1+2oPwmofx32pmxGo4egnIiIios9L0MfiwfStGJ4YwStVb8DusGPL8iREhQXgk/J2DFisSkdUnFrpAL7k3VONsNkduGdFMtSqL8KVPkQAABFESURBVP9sVdvfgLNdpUjUx2F57BLXByQiIiLyAHfE3YbqvlqUdlfiYMNhbE3bhG9unQedRoWQIE4eZIHvIr2DYzhW3g5jqB9W3GDnWofkwFvVfwIAPJK5DaLAD1eIiIiIbkQQBDye8xBahtpwqOljpBtSkROTqXQst8Eq0kUq63tgs0vYuiLlhk/vP207g1ZLO5ZFL0JKSJICCYmIiIg8h7/aH0/mPQ5REPG7qp0YsA4CABo7B/HCayXoHfTd2fgs8F1kdUEc/vHJpVieF/Wlr1kmhnGg/hD8VDrcl3a3AumIiIiIPE9ScALuT9+CoQkLXq16Aw7JgRaTBdUt/XjtcLXS8RTDAt+F4iODoBK//Ee+v+59DNtGsCVlA0J0egWSEREREXmmNfErkR+Ri+r+OrzX+BFunx+DzIRQlNaYUVLdrXQ8RbDAdzJz/yhe2l2B5q6hG369eagVJ9qLER0YhdXxK12cjoiIiMizCYKAJ3IeRpifAe81fIia/jp8dVMWVKKA1w5X4/+3d+dBVdeNHsff53BAVhGQg4iCiCIouJU+Dy6paYva5M0yl2u2XCvj8bE7k5VjNTZjmJoz1zJHS7Nu9piY+rj01GM3l6dUXFsEckMRQVGW4ACyyHLuHzbM9eaSCvz4HT6v/845M/qZ+YzMx9/5/n6UV7a8Z+Nr4DeyrXvP8FNGAecLLv3uM6fTyRcnNuPEybiuD+NmdTMgoYiIiIi5ebt780yPSVgsFj5O/xxfPyejE648G//jr4/idDqNjtikNPAbUV5ROXtSLxAa5E3/2N+fvT9w4QdOO7LoHRxPTGBXAxKKiIiIuIZI/wjGRI2k5HIp//3LWkYPCCe6gz+ZuSU4Ll02Ol6T0mMyG9HWvWeoczoZMygSq9Vy1WcVNZVsOvUV7lZ3xnZ5yKCEIiIiIq7j3o6DOVl0irTCY2zP/o5p/zYQm5sVXy93o6M1KV3BbyQXfy1nb9oFwtr6cHeM/Xeff33mW0oul/JAxDCCvAIMSCgiIiLiWqwWK0/EjqdNK3++PL2Ngprz9eO+wFFBeWW1wQmbhgZ+I/nHviycTq5cvbdcffU+qySbndm7CfIMZET4EIMSioiIiLgeXw8fnq4/j7+G4ioH5/LLeHPVQT7++liLOI+vgd9IHhsSxbihUfTtFnzV+yWXS/kw9VOcTicTY8bi7tayvjISERERaWxd2kTycOcHKa5ysOSnlfi1dtLB7svh4/ns+OGc0fEanQZ+I2nt48HIP0dcdfW+pq6GlamrKa5y8HDUg8QG6lcqi4iIiDSGEeFDuLfjYC5cusiyIx/z5Ogo/LzdSd5xkszcEqPjNSoN/AaWW3iJg8fyqLvG1z8bTm7llOMMfe09uS98aNOHExEREWkhLBYLY7s8xJ9D7+ZsaQ7Jpz/n6dFdqa11smxTmkufx9fAb2Cbd2eybFMav2T+etX7e88f4LtzKbT3acfk2Mex/L9z+SIiIiLSsCwWC5O6PUrv4DhOFp9m36WvGZnQkQJHJWu3Zxgdr9Fo4Degc/llHDyaR0SIHz0iA+vfz3RkkXz873jbvHi+55O0cvMwMKWIiIhIy+FmdeOpHpOICehKasFRSoMOMvzuMB4e1MnoaI1GA78Bbd5zBicwZnBk/RV6R1UpK1JXU+us45m4f6etV5CxIUVERERaGHerjed6Pklk6wgO5f2EreMvBLX2NDpWo9HAbyCZuSUcOpZHZKgfvaKujPiauhpWpn2K43IJY6JG6qZaEREREYO0cvMgsdfThPmG8t25FL48vY2MHAcL/vaDy53H18BvAJWXa3h/YyoW4NEhUfVX7784sZnTjizusvfS8+5FREREDObt7s1fek0l2CuIf2bt4MuM7RzPLubjr1zr+fga+A3A08PGI4M7M25YF7p3unL2fve5few+v58w31Amx47TTbUiIiIizYB/Kz/+2vs52rTy52TdPsKiCzl8Ip/th3OMjtZgNPDvgNPprP/f3qCeoTz4p3AATjvOsO7EZnxs3jwX/yQeuqlWREREpNkI8grgr72n4uvuQ1GbQ/i0yyd5RwappwuNjtYgNPDvwObdmXy49RcuV9fWv1dc5WBF6mrq6m+qDbzBnyAiIiIiRmjnE8Jfev3Hlacbhv+I1b+Ad784wqFjeUZHu2Ma+LdpX/oFtuw5w+nzDqp+G/jVv/2m2pLLpTzSZTQxgV0NTikiIiIi1xPeugPTej6Nm9WKZ/SPBEcUExXmb3SsO6aBfxsyzjlY9dUxvFq5MeOxXvh5e+B0Oll3fBOZJWfpF9KHezsONjqmiIiIiNxE14DOTI17AovFQok9hX9d3E5tXS25hZeorqkzOt5tsRkdwGwKHBW8v+EItXV1zBjTi7C2PlTX1bDx5Fb25h6gg297JsU8qptqRUREREwirm0sL989nRWpn/I/Z3eRUZTF2QNdad8mkOlj4/H1cjc64i3RFfxbcLm6lvfWH6GkvJpJI6KJ6xxEYcWv/NfhZXx3LoX2Pu14vqduqhURERExmzDfUF7tN4OebXuQWZqJpdtuMooymbf6MHnFFUbHuyUa+LfA3WZlYHwow+/qwPC7OpBWcJT5B98lqzSbP7W7i5fvnk6gZ4DRMUVERETkNnjZvHg2/gnGRI2k1lqBZ/cD5LsfJenTg5w+X2J0vD9MR3RugcVi4YH+4dTW1bLl1D/ZlrUDm9XGpJhHGRDaX8dyREREREzOarFyf8QwIvw6sir9bzgjjlJVWMzCtZdJHNOHnlFBRke8KQ38P+C7n89z9mIpE0d0paz6Ep+kr+FE8SnaegYyNf4JOvqFGR1RRERERBpQt8AuzOr3Ih+lfUYmZ7H4lmHzigY08E3vWFYRq7cdx9PDjdjuTjac+QLH5VJ6te3B5NjH8Xb3MjqiiIiIiDSCAM82/GffaWzM+Af/ytnDRydX8ITtcSK8ovH38cBqbZ6nN3QG/zqcTifHzxax9O+pgJOEYZf45OQnlFZf4pEuo3k2forGvYiIiIiLs1ltPB49hqe6T6TOWceKtNUs3rOWqppqo6Ndl67gX0P6mV9ZtyOD7LwycKumS0ImewpP4+/hxzNxk+nSJtLoiCIiIiLShPq160OYbygfHvmUfNL5seBnBrTvZ3Ssa9LA/01RaRUBfq0AqHPWcL48h8j4Gsr9MjhXXUx0QBee7jGR1h5+BicVERERESO0923Hq/1nkHL+AN2Doo2Oc10teuDX1Tn58eRFtqWmc6Ykh/53tSKvKpfcSxfx6F7HBYAaeDDiXkZ3vh+rRSeaRERERFoyL5sn94bfY3SMG2pxA7+ippKvj/3EjrRUsstyqG3lwBJYh3sg/FgI7lYbEX4dCW/dgQi/DnT270Swd/O/W1pEREREBFrgwP/ixFb2XzgIgNPTgo8zkOiACLqHRBLu15H2PiG4Wd0MTikiIiIicnta3MB/oNNQKor9CLAG8UDPOPy99SQcEREREXEdLW7gh3gH8/qYceTnlxodRURERESkwf2hu0bnzZvH+PHjmTBhAkeOHLnqs7179/LYY48xfvx4li5d2ighRURERETkj7npwD9w4ABZWVkkJyeTlJREUlLSVZ+/9dZbLFmyhM8//5w9e/aQkZHRaGFFREREROTGbjrwU1JSGDFiBABRUVE4HA7KysoAyM7Oxt/fn9DQUKxWK0OGDCElJaVxE4uIiIiIyHXddOAXFBQQEBBQ/zowMJD8/HwA8vPzCQwMvOZnIiIiIiLS9G75Jlun03lHf2FAgDc2m/GPoQwO1m+kNTP1Z27qz7zUnbmpP3NTf+bWlP3ddODb7XYKCgrqX+fl5REcHHzNzy5evIjdbr/hn1dUVH67WRtMcLCfnqJjYurP3NSfeak7c1N/5qb+zK2x+rvefxpuekRn4MCBbNu2DYD09HTsdju+vr4AdOjQgbKyMnJycqipqWHnzp0MHDiwAWOLiIiIiMituOkV/L59+9KjRw8mTJiAxWJhzpw5bNy4ET8/P+677z7efPNNXnrpJQBGjRpFZGRko4cWEREREZFrszjv9FD9LWoOXy/pay5zU3/mpv7MS92Zm/ozN/Vnbs3uiI6IiIiIiJiHBr6IiIiIiAvRwBcRERERcSEa+CIiIiIiLkQDX0RERETEhWjgi4iIiIi4EA18EREREREXooEvIiIiIuJCNPBFRERERFxIk/8mWxERERERaTy6gi8iIiIi4kI08EVEREREXIgGvoiIiIiIC9HAFxERERFxIRr4IiIiIiIuRANfRERERMSF2IwO0NTmzZvHzz//jMViYfbs2fTs2dPoSHITJ06cIDExkaeeeorJkyeTm5vLK6+8Qm1tLcHBwbzzzjt4eHgYHVOuY+HChRw+fJiamhqef/554uPj1Z8JVFRUMGvWLAoLC6mqqiIxMZGYmBh1ZzKVlZU89NBDJCYmkpCQoP5MYv/+/bz44ot07doVgOjoaKZOnar+TGTLli2sXLkSm83GjBkz6NatW5P216Ku4B84cICsrCySk5NJSkoiKSnJ6EhyE+Xl5cydO5eEhIT699577z0mTZrEmjVriIiIYP369QYmlBvZt28fJ0+eJDk5mZUrVzJv3jz1ZxI7d+4kLi6Ozz77jMWLFzN//nx1Z0LLli3D398f0M9Os+nfvz+rV69m9erVvPHGG+rPRIqKili6dClr1qxh+fLlbN++vcn7a1EDPyUlhREjRgAQFRWFw+GgrKzM4FRyIx4eHqxYsQK73V7/3v79+xk+fDgAw4YNIyUlxah4chP9+vXj3XffBaB169ZUVFSoP5MYNWoUzz77LAC5ubmEhISoO5M5deoUGRkZDB06FNDPTrNTf+aRkpJCQkICvr6+2O125s6d2+T9taiBX1BQQEBAQP3rwMBA8vPzDUwkN2Oz2fD09LzqvYqKivqvtYKCgtRhM+bm5oa3tzcA69ev55577lF/JjNhwgRmzpzJ7Nmz1Z3JLFiwgFmzZtW/Vn/mkpGRwbRp05g4cSJ79uxRfyaSk5NDZWUl06ZNY9KkSaSkpDR5fy3uDP7/5XQ6jY4gd0gdmsO3337L+vXrWbVqFffff3/9++qv+Vu7di1Hjx7l5Zdfvqovdde8bdq0id69e9OxY8drfq7+mrdOnToxffp0Ro4cSXZ2NlOmTKG2trb+c/XX/BUXF/P+++9z/vx5pkyZ0uQ/P1vUwLfb7RQUFNS/zsvLIzg42MBEcju8vb2prKzE09OTixcvXnV8R5qf77//nuXLl7Ny5Ur8/PzUn0mkpaURFBREaGgosbGx1NbW4uPjo+5MYteuXWRnZ7Nr1y4uXLiAh4eH/u2ZSEhICKNGjQIgPDyctm3bkpqaqv5MIigoiD59+mCz2QgPD8fHxwc3N7cm7a9FHdEZOHAg27ZtAyA9PR273Y6vr6/BqeRWDRgwoL7Hb775hsGDBxucSK6ntLSUhQsX8sEHH9CmTRtA/ZnFoUOHWLVqFXDleGN5ebm6M5HFixezYcMG1q1bx7hx40hMTFR/JrJlyxY++ugjAPLz8yksLGTs2LHqzyQGDRrEvn37qKuro6ioyJCfnxZnC/ueZ9GiRRw6dAiLxcKcOXOIiYkxOpLcQFpaGgsWLODcuXPYbDZCQkJYtGgRs2bNoqqqivbt2/P222/j7u5udFS5huTkZJYsWUJkZGT9e/Pnz+f1119Xf81cZWUlr732Grm5uVRWVjJ9+nTi4uJ49dVX1Z3JLFmyhLCwMAYNGqT+TKKsrIyZM2dSUlJCdXU106dPJzY2Vv2ZyNq1a+uflPPCCy8QHx/fpP21uIEvIiIiIuLKWtQRHRERERERV6eBLyIiIiLiQjTwRURERERciAa+iIiIiIgL0cAXEREREXEhGvgiIiIiIi5EA19ERERExIVo4IuIiIiIuJD/BdsYJD/qGhBdAAAAAElFTkSuQmCC;" vertex="1" parent="1">
          <mxGeometry x="20" y="352" width="760" height="466" as="geometry" />
        </mxCell>
      </root>
    </mxGraphModel>
  </diagram>
</mxfile>
